<svg version="1.1" id="Layer_1" xmlns="http://www.w3.org/2000/svg" xmlns:xlink="http://www.w3.org/1999/xlink" x="0px" y="0px"
	 width="100%" viewBox="0 0 2000 258" enable-background="new 0 0 2000 258" xml:space="preserve">
<path fill="#4C6971" opacity="1.000000" stroke="none" 
	d="
M1531.000000,259.000000 
	C1020.723022,259.000000 510.946014,259.000000 1.084510,259.000000 
	C1.084510,173.065918 1.084510,87.131721 1.084510,1.098766 
	C667.666687,1.098766 1334.333374,1.098766 2000.973633,1.098766 
	C2000.973633,87.054268 2000.973633,173.027145 2000.973633,259.000000 
	C1844.464722,259.000000 1687.982422,259.000000 1531.000000,259.000000 
M1236.316284,108.941803 
	C1227.703003,115.189095 1218.282349,119.006340 1207.434082,118.995522 
	C1207.228149,118.087349 1207.029541,117.619675 1207.029175,117.151863 
	C1207.009277,91.488930 1206.969238,65.825882 1207.046509,40.163177 
	C1207.056396,36.899490 1207.546265,33.615002 1208.060791,30.379456 
	C1209.366943,22.166237 1213.482544,18.206711 1221.882446,17.011486 
	C1226.206543,16.396191 1230.555664,15.954720 1234.733765,15.453850 
	C1234.733765,12.932306 1234.733765,10.660925 1234.733765,8.500000 
	C1205.377441,8.500000 1176.289185,8.500000 1147.215332,8.500000 
	C1147.215332,10.961913 1147.215332,13.240642 1147.215332,15.178583 
	C1153.256226,16.157343 1159.291016,16.355194 1164.695435,18.302246 
	C1167.955933,19.476898 1171.408813,22.911402 1172.676880,26.151628 
	C1174.468140,30.729021 1174.899414,36.064281 1174.911377,41.077988 
	C1175.050171,99.069313 1175.021484,157.061127 1174.950195,215.052673 
	C1174.945557,218.808243 1174.637329,222.663086 1173.749023,226.295334 
	C1172.291382,232.255875 1169.426758,237.210007 1162.434082,238.178879 
	C1157.317993,238.887711 1152.238770,239.863327 1147.248779,240.702271 
	C1147.248779,243.041809 1147.248779,245.320892 1147.248779,247.499969 
	C1176.580200,247.499969 1205.662720,247.499969 1234.627930,247.499969 
	C1234.627930,244.948074 1234.627930,242.552521 1234.627930,240.430756 
	C1230.485229,239.921112 1226.750610,239.377655 1222.998291,239.017593 
	C1215.293213,238.278244 1211.098145,235.188812 1208.989746,227.733231 
	C1207.891602,223.850525 1207.107422,219.732269 1207.085693,215.715515 
	C1206.929810,186.887192 1207.004395,158.057632 1207.020752,129.228455 
	C1207.021118,128.586868 1207.197632,127.945381 1207.292236,127.303040 
	C1219.303345,127.005547 1228.358643,132.517319 1234.858154,141.807312 
	C1245.216675,156.612854 1254.969482,171.841995 1264.979980,186.891022 
	C1274.001099,200.452850 1283.018433,214.017212 1292.049072,227.572678 
	C1296.082642,233.627335 1294.647949,237.438293 1287.646606,238.992203 
	C1284.832886,239.616684 1281.977539,240.053650 1279.242188,240.557343 
	C1279.242188,243.026871 1279.242188,245.299194 1279.242188,247.500000 
	C1360.582397,247.500000 1441.681519,247.500000 1522.559448,247.500000 
	C1521.982300,224.940781 1521.410156,202.581970 1520.838013,180.221954 
	C1518.668701,180.221954 1516.055298,180.221954 1513.508301,180.221954 
	C1512.312500,187.342926 1511.381958,194.285904 1509.939819,201.120956 
	C1508.094238,209.868149 1505.814697,218.487503 1499.892090,225.636322 
	C1492.173706,234.952560 1481.499634,238.233673 1470.267700,238.806473 
	C1455.142578,239.577835 1439.945312,239.186783 1424.785278,238.929398 
	C1415.293335,238.768234 1410.346313,235.244385 1408.422485,227.824646 
	C1407.567261,224.525803 1407.073364,221.036728 1407.059814,217.631424 
	C1406.952271,190.635742 1407.000000,163.639435 1407.000000,136.643326 
	C1407.000000,134.873306 1407.000000,133.103287 1407.000000,131.000015 
	C1415.065674,131.000015 1422.535767,130.999725 1430.005737,131.000366 
	C1431.005615,131.000458 1432.015015,130.915558 1433.003784,131.021530 
	C1446.051758,132.419846 1453.515503,138.576981 1456.626465,151.418503 
	C1458.272339,158.212250 1459.093994,165.228790 1459.908813,172.189133 
	C1460.225708,174.895844 1460.990234,176.195816 1463.789062,176.016815 
	C1465.391113,175.914352 1467.005127,175.998260 1468.000000,175.998260 
	C1468.000000,143.426971 1468.000000,111.384369 1468.000000,79.007912 
	C1465.674316,79.007912 1463.755615,78.629372 1462.106812,79.133453 
	C1460.891479,79.505013 1459.365723,80.888535 1459.116821,82.062561 
	C1457.565308,89.377411 1456.786987,96.879929 1454.880737,104.089737 
	C1452.612915,112.667198 1447.917725,120.345230 1438.539795,121.752090 
	C1428.339111,123.282372 1417.860596,122.961113 1407.852051,123.430748 
	C1407.330566,122.252953 1407.091553,121.964943 1407.091064,121.676605 
	C1407.049805,93.015274 1406.325439,64.329628 1407.316895,35.703453 
	C1407.769897,22.627035 1410.021606,18.055225 1422.857910,17.352688 
	C1441.206543,16.348454 1459.719116,17.094519 1478.089722,18.243820 
	C1487.795410,18.851027 1496.050537,24.335011 1499.247925,33.992161 
	C1502.345703,43.348373 1504.329834,53.164520 1505.834717,62.927906 
	C1507.028320,70.671791 1506.859375,71.123817 1514.035645,69.466606 
	C1514.676270,48.968819 1515.311157,28.658398 1515.941284,8.500000 
	C1460.102783,8.500000 1403.670288,8.500000 1347.381592,8.500000 
	C1347.381592,11.053748 1347.381592,13.447139 1347.381592,15.999977 
	C1349.253052,15.999977 1350.747192,15.949034 1352.237061,16.007830 
	C1367.698486,16.617970 1374.258179,20.831070 1374.047363,37.884018 
	C1373.833130,55.212212 1374.000000,72.545113 1374.000000,89.875954 
	C1374.000000,133.369690 1374.011475,176.863434 1373.992798,220.357178 
	C1373.987427,232.924103 1365.944946,241.475708 1353.814453,239.613632 
	C1347.295898,238.612991 1340.281982,234.938095 1335.427002,230.399475 
	C1328.339966,223.774323 1322.770630,215.451004 1316.958130,207.554337 
	C1307.484619,194.683701 1298.334229,181.575089 1289.052979,168.563126 
	C1275.798828,149.981247 1262.514893,131.420349 1249.391479,112.746651 
	C1248.666626,111.715347 1248.666016,109.290947 1249.391357,108.270927 
	C1253.554199,102.417000 1258.016602,96.774857 1262.417480,91.091827 
	C1272.725098,77.781044 1282.786743,64.267113 1293.469971,51.264069 
	C1300.739014,42.416431 1308.567627,33.964161 1316.748047,25.949545 
	C1323.556152,19.279278 1332.846680,17.300467 1341.735962,15.511206 
	C1341.735962,13.249741 1341.735962,11.317043 1341.735962,8.696259 
	C1318.798340,8.696259 1296.118408,8.696259 1273.288818,8.696259 
	C1273.288818,10.884367 1273.288818,13.275290 1273.288818,16.000942 
	C1275.706177,16.000942 1277.871094,15.789122 1279.982422,16.036245 
	C1291.412964,17.374132 1297.614746,23.941835 1292.088257,35.473907 
	C1290.399658,38.997562 1288.839478,42.671219 1286.581177,45.817215 
	C1279.161499,56.153481 1271.695190,66.475456 1263.781250,76.432808 
	C1255.100342,87.354988 1245.902710,97.866325 1236.316284,108.941803 
M156.500000,123.000000 
	C131.413589,123.000000 106.327194,123.000000 82.006691,123.000000 
	C82.006691,92.223679 81.819527,62.143406 82.185989,32.069881 
	C82.249039,26.895298 83.737602,20.942701 89.990097,19.092625 
	C96.008392,17.311842 102.231850,16.224405 108.723572,14.750986 
	C108.723572,13.151339 108.723572,10.763687 108.723572,8.500000 
	C79.689400,8.500000 50.933586,8.500000 22.226429,8.500000 
	C22.226429,10.982764 22.226429,13.262090 22.226429,16.000805 
	C24.901096,16.000805 27.393763,15.731166 29.807951,16.052008 
	C36.697205,16.967583 43.840561,18.049965 46.691345,25.630262 
	C48.152519,29.515560 48.896637,33.903488 48.906216,38.066696 
	C49.043468,97.726936 49.022633,157.387619 48.943657,217.048065 
	C48.938923,220.625916 48.427868,224.274155 47.611870,227.763229 
	C46.380085,233.030182 43.281807,236.873779 37.657780,237.960953 
	C32.570282,238.944412 27.450626,239.761536 22.335218,240.653732 
	C22.335218,242.984604 22.335218,245.381073 22.335218,247.499908 
	C51.299660,247.499908 79.929512,247.499908 108.718796,247.499908 
	C108.718796,245.130859 108.718796,242.738174 108.718796,240.449509 
	C104.539124,239.939789 100.632957,239.570145 96.762840,238.968552 
	C89.416023,237.826508 83.754875,233.621918 83.077194,228.409134 
	C82.168617,221.420319 81.164223,214.383011 81.092690,207.357422 
	C80.850052,183.529007 81.000061,159.696579 81.000061,135.865692 
	C81.000061,134.289932 81.000061,132.714172 81.000061,131.271973 
	C117.732674,131.271973 153.667786,131.271973 189.409332,131.271973 
	C189.692795,131.674438 189.865051,131.804794 189.865280,131.935455 
	C189.917023,161.763535 190.323425,191.598297 189.782990,221.415863 
	C189.611176,230.894836 186.891769,237.587280 174.097717,239.018982 
	C170.542664,239.416809 167.005386,239.973785 163.272858,240.483276 
	C163.272858,242.848236 163.272858,245.241287 163.272858,247.499939 
	C192.294220,247.499939 221.042267,247.499939 249.601685,247.499939 
	C249.601685,244.891800 249.601685,242.506226 249.601685,239.999191 
	C247.539963,239.999191 245.796371,240.323730 244.226471,239.939194 
	C239.234650,238.716492 233.769608,238.142807 229.487686,235.620361 
	C223.771011,232.252686 223.063095,225.606262 223.046387,219.453400 
	C222.950958,184.290588 223.000000,149.127396 223.000000,113.964325 
	C222.999985,88.133636 222.695694,62.297684 223.142715,36.474731 
	C223.334259,25.409639 225.252899,18.878403 238.140579,16.939495 
	C241.985260,16.361078 245.854813,15.947991 249.639587,15.468452 
	C249.639587,12.993746 249.639587,10.605791 249.639587,8.500000 
	C220.647934,8.500000 192.018234,8.500000 163.307953,8.500000 
	C163.307953,10.916958 163.307953,13.307020 163.307953,16.001064 
	C166.087158,16.001064 168.565750,15.914038 171.036453,16.016525 
	C180.413940,16.405510 187.648392,21.176308 188.892929,28.103662 
	C189.586395,31.963709 189.939636,35.935612 189.953369,39.858829 
	C190.043747,65.689201 190.000000,91.520042 190.000000,117.350731 
	C190.000000,119.121368 190.000000,120.892014 190.000000,123.000000 
	C178.771454,123.000000 168.135727,123.000000 156.500000,123.000000 
M1759.142700,19.371826 
	C1765.573608,17.838474 1772.004517,16.305122 1778.682861,14.712784 
	C1778.682861,13.073435 1778.682861,10.686029 1778.682861,8.500000 
	C1749.621948,8.500000 1720.881226,8.500000 1692.261597,8.500000 
	C1692.261597,11.061901 1692.261597,13.335719 1692.261597,15.141747 
	C1698.037354,16.146711 1703.533081,16.839874 1708.890869,18.113646 
	C1713.684448,19.253263 1716.974976,22.523811 1717.897095,27.434372 
	C1718.619873,31.283110 1718.949707,35.260021 1718.955444,39.180721 
	C1719.024658,85.669891 1719.000000,132.159195 1719.000000,178.648468 
	C1719.000000,192.645233 1719.438843,206.659851 1718.870361,220.633499 
	C1718.353394,233.341461 1714.653320,237.371002 1703.244995,239.000198 
	C1699.560059,239.526413 1695.869751,240.014740 1692.399536,240.490540 
	C1692.399536,243.099533 1692.399536,245.491272 1692.399536,247.499924 
	C1721.423950,247.499924 1750.049438,247.499924 1778.665527,247.499924 
	C1778.665527,245.012772 1778.665527,242.615829 1778.665527,239.999466 
	C1777.014282,239.999466 1775.637939,240.248810 1774.388428,239.956223 
	C1769.064453,238.709442 1763.198242,238.318085 1758.620117,235.704590 
	C1752.473755,232.195786 1752.142334,224.934296 1752.092773,218.589462 
	C1751.876709,190.930878 1751.995850,163.269623 1752.011475,135.609344 
	C1752.012329,134.170319 1752.181030,132.731384 1752.267456,131.357422 
	C1788.675171,131.357422 1824.724731,131.357422 1861.000000,131.357422 
	C1861.000000,158.526871 1861.045776,185.339630 1860.953125,212.151917 
	C1860.938354,216.415314 1860.604004,220.728470 1859.887329,224.928162 
	C1858.322388,234.097595 1853.730835,238.098755 1844.558350,239.020813 
	C1840.836548,239.394943 1837.135986,239.980286 1833.289551,240.487488 
	C1833.289551,242.880112 1833.289551,245.271652 1833.289551,247.499969 
	C1862.322510,247.499969 1891.065552,247.499969 1919.772095,247.499969 
	C1919.772095,245.001038 1919.772095,242.723206 1919.772095,240.411545 
	C1915.838379,239.921982 1912.127808,239.404510 1908.404175,239.008453 
	C1900.905640,238.210846 1896.467285,234.696625 1894.826416,227.326080 
	C1893.802612,222.727798 1893.085083,217.951843 1893.075562,213.253891 
	C1892.959351,155.934021 1892.978638,98.613815 1893.045044,41.293777 
	C1893.049805,37.199631 1893.240601,32.999527 1894.161255,29.038410 
	C1895.430176,23.579456 1898.173828,18.962704 1904.466919,17.884048 
	C1909.561035,17.010874 1914.650391,16.109274 1919.796387,15.210770 
	C1919.796387,13.054605 1919.796387,10.778859 1919.796387,8.500000 
	C1890.840088,8.500000 1862.087280,8.500000 1833.334961,8.500000 
	C1833.334961,10.968081 1833.334961,13.359178 1833.334961,16.000603 
	C1835.981445,16.000603 1838.296875,15.948777 1840.609375,16.009420 
	C1851.630127,16.298437 1857.426514,20.122295 1859.616943,29.299603 
	C1860.637573,33.575874 1860.921753,38.109596 1860.942383,42.529430 
	C1861.060913,67.856361 1861.004517,93.184135 1860.987793,118.511612 
	C1860.986816,119.940765 1860.811523,121.369804 1860.730469,122.599792 
	C1824.238770,122.599792 1788.188599,122.599792 1752.000854,122.599792 
	C1752.000854,93.542595 1751.836304,64.883682 1752.135742,36.229607 
	C1752.197754,30.293325 1753.188599,24.052805 1759.142700,19.371826 
M1042.715698,239.998413 
	C1040.290283,239.656158 1037.857178,239.359833 1035.440674,238.963074 
	C1027.967407,237.736145 1024.561646,234.714737 1023.030945,227.175461 
	C1022.027344,222.232285 1021.072571,217.158981 1021.089050,212.147202 
	C1021.284668,152.564529 1021.547180,92.981308 1022.135925,33.401615 
	C1022.219910,24.902712 1025.029419,18.274355 1036.473999,16.978323 
	C1040.516479,16.520550 1044.550781,15.992041 1048.699097,15.482270 
	C1048.699097,13.102177 1048.699097,10.716030 1048.699097,8.500000 
	C1019.646423,8.500000 990.897217,8.500000 962.244141,8.500000 
	C962.244141,11.020531 962.244141,13.299572 962.244141,15.527245 
	C966.703674,16.039326 970.961792,16.284748 975.119934,17.063810 
	C981.096497,18.183554 985.942932,20.929392 987.147949,27.597118 
	C987.840393,31.429062 988.895081,35.284225 988.918091,39.134129 
	C989.074707,65.292786 989.000000,91.452827 989.000000,117.612427 
	C989.000000,119.357483 989.000000,121.102531 989.000000,122.742523 
	C952.287842,122.742523 916.357117,122.742523 880.000000,122.742523 
	C880.000000,120.698463 880.000000,118.905991 880.000000,117.113518 
	C880.000000,92.786758 879.881165,68.458977 880.090332,44.134022 
	C880.137695,38.617043 881.298523,33.106770 881.991455,27.599030 
	C882.644409,22.409311 885.870605,19.227695 890.665588,18.084597 
	C896.178955,16.770226 901.854553,16.136280 907.732422,15.161575 
	C907.732422,13.167728 907.732422,10.780249 907.732422,8.500000 
	C878.377686,8.500000 849.292236,8.500000 820.395630,8.500000 
	C820.395630,11.079700 820.395630,13.473376 820.395630,15.198924 
	C826.522278,16.195129 832.402466,16.411316 837.687683,18.295973 
	C840.722107,19.378002 843.964478,22.757149 845.034790,25.826864 
	C846.877991,31.113722 847.862793,36.963749 847.881958,42.581936 
	C848.075623,99.399254 848.022278,156.217514 847.955139,213.035416 
	C847.950073,217.297684 847.763794,221.660355 846.849670,225.796906 
	C845.541321,231.717255 842.937988,236.952240 835.933838,238.068954 
	C830.668701,238.908417 825.419128,239.844971 820.241760,240.724869 
	C820.241760,243.021988 820.241760,245.299164 820.241760,247.499969 
	C849.563354,247.499969 878.642944,247.499969 907.639282,247.499969 
	C907.639282,244.969742 907.639282,242.574768 907.639282,240.385773 
	C903.183960,239.893829 899.061707,239.692963 895.044189,238.936035 
	C888.860962,237.771042 883.340759,235.397888 882.025024,228.278671 
	C881.167175,223.637375 880.122864,218.934616 880.089478,214.252762 
	C879.903320,188.094498 880.000000,161.934204 880.000000,135.774612 
	C880.000000,134.325775 880.000000,132.876938 880.000000,131.297485 
	C916.556274,131.297485 952.604492,131.297485 989.000000,131.297485 
	C989.000000,133.394226 989.000000,135.196915 989.000000,136.999603 
	C989.000000,163.325821 989.044617,189.652206 988.949768,215.978073 
	C988.936279,219.733154 988.606812,223.566666 987.785645,227.220505 
	C986.574829,232.608414 983.606689,236.808472 977.731628,237.952652 
	C972.642395,238.943802 967.516296,239.746002 962.309814,240.648468 
	C962.309814,242.924774 962.309814,245.318497 962.309814,247.499939 
	C991.365173,247.499939 1020.109924,247.499939 1048.750732,247.499939 
	C1048.750732,244.962738 1048.750732,242.684753 1048.750732,239.999756 
	C1046.880005,239.999756 1045.252563,239.999756 1042.715698,239.998413 
M269.889160,238.604034 
	C265.380005,239.251953 260.870850,239.899887 256.321960,240.553513 
	C256.321960,242.949890 256.321960,245.343567 256.321960,247.499939 
	C285.273499,247.499939 313.903351,247.499939 342.731476,247.499939 
	C342.731476,245.158310 342.731476,242.765305 342.731476,239.999695 
	C340.834625,239.999695 339.132141,240.301682 337.581757,239.944138 
	C332.564941,238.787201 327.137482,238.252014 322.733948,235.874069 
	C316.562103,232.541214 316.113434,225.638519 316.073059,219.414871 
	C315.901306,192.917191 316.000031,166.417755 316.000031,139.918961 
	C316.000031,138.337845 316.000031,136.756729 316.000031,135.000000 
	C328.249939,135.000000 339.741394,135.044785 351.232300,134.985626 
	C360.194855,134.939499 366.993866,138.945694 371.989044,146.105652 
	C378.749298,155.795654 381.276001,167.114212 384.006653,178.341766 
	C388.303864,196.010513 392.505035,213.705048 397.064850,231.306290 
	C398.815399,238.063568 403.371521,243.265656 409.151215,246.958649 
	C425.670380,257.513733 449.001617,254.778488 462.002045,235.972885 
	C465.813171,230.459869 465.802917,230.452774 459.874207,226.244171 
	C458.151184,228.397156 456.596436,230.755508 454.635437,232.705292 
	C450.296173,237.019714 445.212585,240.257050 438.822754,238.885452 
	C433.758392,237.798386 431.211823,233.755829 429.942627,228.912186 
	C424.963959,209.911926 420.032684,190.899033 414.983490,171.917496 
	C409.889496,152.767334 399.596191,138.648132 378.727203,134.857651 
	C376.817474,134.510773 375.011993,133.589951 371.848450,132.473389 
	C377.588104,130.417908 381.943634,128.797211 386.339325,127.293999 
	C411.916382,118.547401 430.505615,95.264336 430.279114,66.364708 
	C430.089111,42.119808 413.933044,24.094467 394.536346,15.945431 
	C379.712524,9.717569 364.132477,8.277044 348.398956,8.100129 
	C334.972260,7.949153 321.537201,8.759842 308.103088,8.969289 
	C298.105988,9.125150 288.100647,9.169795 278.106232,8.942823 
	C270.891754,8.778981 263.689209,8.087372 256.282776,7.618579 
	C256.282776,10.868088 256.282776,13.257228 256.282776,15.999957 
	C258.023193,15.999957 259.497253,15.961507 260.968842,16.005859 
	C277.042969,16.490328 282.967957,22.402128 282.980652,38.192543 
	C283.028778,98.023109 283.041656,157.853821 282.910034,217.684143 
	C282.900848,221.852859 282.141022,226.205841 280.767426,230.136688 
	C279.192993,234.642365 275.943420,237.988205 269.889160,238.604034 
M1569.025635,242.526108 
	C1575.020142,245.017624 1580.830078,248.207993 1587.048828,249.849869 
	C1598.678955,252.920319 1610.528809,253.686630 1622.651611,252.160919 
	C1633.133057,250.841782 1643.435181,248.813675 1652.465454,243.615509 
	C1669.758057,233.661346 1680.746704,219.354279 1683.252075,198.530151 
	C1685.911621,176.424164 1680.487183,157.727646 1664.626465,142.150223 
	C1649.922852,127.709053 1632.099243,117.582352 1614.989990,106.463341 
	C1601.511719,97.704102 1587.029907,90.395111 1576.232788,77.856178 
	C1564.829102,64.612946 1563.030762,43.783703 1572.058105,29.589540 
	C1581.040527,15.466109 1600.158691,8.450308 1617.220337,12.121180 
	C1636.198364,16.204346 1648.348633,28.160442 1654.876343,45.808380 
	C1658.446045,55.459618 1660.520752,65.663879 1663.312256,75.772980 
	C1665.327148,75.772980 1667.930664,75.772980 1671.264893,75.772980 
	C1671.264893,52.755119 1671.264893,29.959351 1671.259888,7.152788 
	C1663.870728,6.798899 1663.861206,6.796468 1662.121704,13.600939 
	C1661.959717,14.234483 1662.117188,14.949061 1661.958984,15.584302 
	C1660.671143,20.754793 1657.262207,22.407236 1652.318970,20.039145 
	C1648.798340,18.352488 1645.223145,16.642740 1642.036865,14.420471 
	C1631.897217,7.348601 1620.490112,3.878608 1608.410034,4.217514 
	C1598.353516,4.499649 1588.105103,5.744397 1578.387695,8.275639 
	C1566.954468,11.253839 1557.523682,18.068617 1550.427124,27.938330 
	C1544.842285,35.705723 1541.896118,44.231674 1540.655762,53.620869 
	C1538.803711,67.642891 1540.464722,81.050423 1547.145264,93.578430 
	C1554.121094,106.659821 1565.040894,115.946556 1577.170776,124.061234 
	C1595.176880,136.107147 1613.365112,147.914856 1630.912354,160.603043 
	C1647.535767,172.623062 1655.707397,188.781342 1652.097534,209.979858 
	C1649.785889,223.554825 1643.038208,233.694885 1630.895508,239.952286 
	C1619.499634,245.824905 1607.354126,246.173065 1595.008301,243.530350 
	C1586.562256,241.722427 1578.983032,238.198029 1572.682983,232.177551 
	C1556.401489,216.618927 1551.723633,196.170486 1549.133423,175.044571 
	C1548.198608,167.420456 1548.148560,166.795258 1540.323975,168.704437 
	C1539.784912,195.688797 1539.246216,222.649841 1538.707031,249.638519 
	C1546.313965,250.553375 1546.314087,250.553421 1548.252686,243.432236 
	C1550.402100,235.536499 1553.278198,234.249039 1560.666382,237.951187 
	C1563.281738,239.261765 1565.834839,240.696365 1569.025635,242.526108 
M799.000000,68.422371 
	C799.396545,48.003407 799.793091,27.584446 800.188904,7.204448 
	C797.583679,7.204448 794.952759,7.204448 792.387817,7.204448 
	C791.886780,8.797764 791.177185,10.163907 791.056274,11.580297 
	C790.125916,22.480207 783.749023,22.930405 776.325989,17.980846 
	C770.667542,14.207851 764.737183,10.466698 758.400696,8.157558 
	C740.138306,1.502384 721.590149,2.605591 703.665588,9.326980 
	C691.709229,13.810409 681.430603,21.126453 675.403015,33.111240 
	C669.369568,45.107552 667.626770,57.574257 668.771606,71.049721 
	C670.148926,87.260941 677.717957,100.012436 688.679016,110.822227 
	C695.468201,117.517654 703.735291,122.808258 711.697632,128.199707 
	C725.715759,137.691666 740.324524,146.334167 754.105652,156.147369 
	C771.033813,168.201553 783.237671,183.227081 781.056091,205.957306 
	C779.999512,216.965240 776.446167,227.017807 768.080750,234.135849 
	C755.071899,245.204926 739.460632,247.327072 723.189636,243.551727 
	C700.881531,238.375595 689.140442,222.439774 683.123779,201.701660 
	C679.968018,190.824478 678.153992,179.558029 675.710022,168.357101 
	C673.665222,168.357101 670.945312,168.357101 667.619995,168.357101 
	C667.619995,195.720627 667.619995,222.728638 667.619995,249.647888 
	C670.395752,249.647888 673.128052,249.647888 676.009705,249.647888 
	C676.009705,248.132767 675.870300,246.949860 676.031433,245.809448 
	C677.475830,235.590256 680.782593,233.931183 690.139954,238.581451 
	C696.541199,241.762573 702.807251,245.315140 709.446350,247.898376 
	C725.835144,254.275162 742.826660,254.282074 759.786804,250.874847 
	C777.665222,247.283157 793.005127,239.155502 803.118103,223.297470 
	C810.713684,211.387054 812.541931,198.081177 812.084167,184.173050 
	C811.724121,173.233124 808.709534,163.297943 802.725220,154.242691 
	C793.933533,140.939682 781.613220,131.413818 768.473755,122.858788 
	C753.053955,112.819061 737.473877,103.025475 722.053040,92.987267 
	C705.039917,81.912552 692.846741,67.974350 695.001099,45.854836 
	C695.978149,35.823845 700.064209,27.417406 707.979248,21.001797 
	C716.985657,13.701544 727.355286,11.899772 738.756775,11.818948 
	C759.301636,11.673306 775.106445,26.330147 781.769897,42.394958 
	C786.136963,52.923317 788.473877,64.293755 791.832031,75.666061 
	C793.287964,75.666061 796.008728,75.666061 799.000000,75.666061 
	C799.000000,73.356209 799.000000,71.377884 799.000000,68.422371 
M630.988708,172.177109 
	C631.325806,161.745132 631.915771,151.314056 631.953552,140.880997 
	C632.077209,106.714981 631.981445,72.548225 632.010559,38.381786 
	C632.020203,27.052473 636.159424,20.199091 645.379456,17.386103 
	C649.667480,16.077860 654.338867,16.025995 658.769348,15.413869 
	C658.769348,12.999569 658.769348,10.722974 658.769348,8.500000 
	C636.446472,8.500000 614.355713,8.500000 592.366089,8.500000 
	C592.366089,11.031756 592.366089,13.426886 592.366089,16.000677 
	C594.720825,16.000677 596.742432,15.770843 598.695435,16.039751 
	C608.033752,17.325569 616.837585,19.875622 620.298157,29.943293 
	C621.864136,34.499294 622.894958,39.501534 622.880249,44.297386 
	C622.755859,84.896790 622.377075,125.495705 621.977478,166.093811 
	C621.839600,180.103607 619.304138,193.774048 613.884033,206.664337 
	C607.490112,221.870499 596.843872,232.745529 580.288330,237.086136 
	C569.327393,239.959930 558.412781,240.730423 547.153992,239.084824 
	C532.838928,236.992508 521.925293,230.033829 515.201965,217.339523 
	C508.747192,205.152283 506.374329,191.530182 506.219543,178.073761 
	C505.663605,129.747116 505.942078,81.410042 506.051941,33.077255 
	C506.073273,23.697239 510.952545,18.521767 520.407532,17.011637 
	C524.426208,16.369795 528.489990,16.010782 532.725525,15.500048 
	C532.725525,13.155410 532.725525,10.767569 532.725525,8.500000 
	C503.691132,8.500000 474.933228,8.500000 446.227844,8.500000 
	C446.227844,10.990363 446.227844,13.270629 446.227844,16.000008 
	C448.227539,16.000008 450.029968,15.899770 451.818420,16.015549 
	C469.279633,17.145929 472.542114,23.067850 472.804779,37.078079 
	C473.659393,82.667297 473.372742,128.277847 474.218292,173.867340 
	C474.415741,184.513351 476.212189,195.449738 479.275360,205.651306 
	C484.533081,223.161667 496.062653,236.850449 512.520142,244.446579 
	C531.421875,253.170914 551.780823,255.062225 572.516052,251.053146 
	C604.398743,244.888748 622.145447,223.942856 627.955017,193.471573 
	C629.237915,186.742462 629.950867,179.904724 630.988708,172.177109 
M1114.000000,177.500000 
	C1114.000000,133.012085 1113.969849,88.524109 1114.045288,44.036312 
	C1114.053101,39.439613 1114.410767,34.801502 1115.099121,30.257256 
	C1116.300293,22.327412 1120.759888,18.103285 1128.615479,17.017469 
	C1132.966675,16.416031 1137.343628,16.001680 1141.650269,15.509714 
	C1141.650269,13.351268 1141.650269,11.299993 1141.650269,8.629028 
	C1112.628540,8.629028 1083.953979,8.629028 1055.363037,8.629028 
	C1055.363037,11.025674 1055.363037,13.419996 1055.363037,16.000713 
	C1057.713013,16.000713 1059.702881,15.950408 1061.689697,16.009117 
	C1072.265991,16.321648 1078.685425,20.273920 1080.605591,28.250000 
	C1081.557861,32.205593 1081.938110,36.388119 1081.943848,40.468864 
	C1082.026123,98.619820 1082.038086,156.770996 1081.920532,214.921829 
	C1081.912109,219.108246 1080.490723,223.274414 1080.219727,227.481781 
	C1079.820068,233.690063 1075.723511,236.468140 1070.640503,237.874741 
	C1065.670044,239.250168 1060.459351,239.757126 1055.330322,240.649429 
	C1055.330322,242.975159 1055.330322,245.371307 1055.330322,247.499969 
	C1084.287354,247.499969 1112.914307,247.499969 1141.727661,247.499969 
	C1141.727661,245.149429 1141.727661,242.757217 1141.727661,240.442001 
	C1137.560547,239.938812 1133.678345,239.393677 1129.779785,239.015198 
	C1121.673218,238.228195 1117.669312,235.005493 1116.016357,227.018875 
	C1114.994629,222.081955 1114.216187,217.016052 1114.088379,211.988770 
	C1113.804932,200.832306 1114.000000,189.663666 1114.000000,177.500000 
M1973.079102,217.614105 
	C1971.791992,216.315186 1970.508057,215.013245 1969.217529,213.717804 
	C1963.522705,208.001297 1952.453735,207.768509 1946.562012,210.203476 
	C1931.244873,216.533859 1928.697876,236.670563 1940.249512,247.083862 
	C1949.526245,255.446381 1964.966797,254.461273 1972.779907,243.832626 
	C1979.061523,235.287491 1978.049072,226.850937 1973.079102,217.614105 
z"/>
<path fill="#FFFFFF" opacity="1.000000" stroke="none" 
	d="
M1236.623291,108.749245 
	C1245.902710,97.866325 1255.100342,87.354988 1263.781250,76.432808 
	C1271.695190,66.475456 1279.161499,56.153481 1286.581177,45.817215 
	C1288.839478,42.671219 1290.399658,38.997562 1292.088257,35.473907 
	C1297.614746,23.941835 1291.412964,17.374132 1279.982422,16.036245 
	C1277.871094,15.789122 1275.706177,16.000942 1273.288818,16.000942 
	C1273.288818,13.275290 1273.288818,10.884367 1273.288818,8.696259 
	C1296.118408,8.696259 1318.798340,8.696259 1341.735962,8.696259 
	C1341.735962,11.317043 1341.735962,13.249741 1341.735962,15.511206 
	C1332.846680,17.300467 1323.556152,19.279278 1316.748047,25.949545 
	C1308.567627,33.964161 1300.739014,42.416431 1293.469971,51.264069 
	C1282.786743,64.267113 1272.725098,77.781044 1262.417480,91.091827 
	C1258.016602,96.774857 1253.554199,102.417000 1249.391357,108.270927 
	C1248.666016,109.290947 1248.666626,111.715347 1249.391479,112.746651 
	C1262.514893,131.420349 1275.798828,149.981247 1289.052979,168.563126 
	C1298.334229,181.575089 1307.484619,194.683701 1316.958130,207.554337 
	C1322.770630,215.451004 1328.339966,223.774323 1335.427002,230.399475 
	C1340.281982,234.938095 1347.295898,238.612991 1353.814453,239.613632 
	C1365.944946,241.475708 1373.987427,232.924103 1373.992798,220.357178 
	C1374.011475,176.863434 1374.000000,133.369690 1374.000000,89.875954 
	C1374.000000,72.545113 1373.833130,55.212212 1374.047363,37.884018 
	C1374.258179,20.831070 1367.698486,16.617970 1352.237061,16.007830 
	C1350.747192,15.949034 1349.253052,15.999977 1347.381592,15.999977 
	C1347.381592,13.447139 1347.381592,11.053748 1347.381592,8.500000 
	C1403.670288,8.500000 1460.102783,8.500000 1515.941284,8.500000 
	C1515.311157,28.658398 1514.676270,48.968819 1514.035645,69.466606 
	C1506.859375,71.123817 1507.028320,70.671791 1505.834717,62.927906 
	C1504.329834,53.164520 1502.345703,43.348373 1499.247925,33.992161 
	C1496.050537,24.335011 1487.795410,18.851027 1478.089722,18.243820 
	C1459.719116,17.094519 1441.206543,16.348454 1422.857910,17.352688 
	C1410.021606,18.055225 1407.769897,22.627035 1407.316895,35.703453 
	C1406.325439,64.329628 1407.049805,93.015274 1407.091064,121.676605 
	C1407.091553,121.964943 1407.330566,122.252953 1407.852051,123.430748 
	C1417.860596,122.961113 1428.339111,123.282372 1438.539795,121.752090 
	C1447.917725,120.345230 1452.612915,112.667198 1454.880737,104.089737 
	C1456.786987,96.879929 1457.565308,89.377411 1459.116821,82.062561 
	C1459.365723,80.888535 1460.891479,79.505013 1462.106812,79.133453 
	C1463.755615,78.629372 1465.674316,79.007912 1468.000000,79.007912 
	C1468.000000,111.384369 1468.000000,143.426971 1468.000000,175.998260 
	C1467.005127,175.998260 1465.391113,175.914352 1463.789062,176.016815 
	C1460.990234,176.195816 1460.225708,174.895844 1459.908813,172.189133 
	C1459.093994,165.228790 1458.272339,158.212250 1456.626465,151.418503 
	C1453.515503,138.576981 1446.051758,132.419846 1433.003784,131.021530 
	C1432.015015,130.915558 1431.005615,131.000458 1430.005737,131.000366 
	C1422.535767,130.999725 1415.065674,131.000015 1407.000000,131.000015 
	C1407.000000,133.103287 1407.000000,134.873306 1407.000000,136.643326 
	C1407.000000,163.639435 1406.952271,190.635742 1407.059814,217.631424 
	C1407.073364,221.036728 1407.567261,224.525803 1408.422485,227.824646 
	C1410.346313,235.244385 1415.293335,238.768234 1424.785278,238.929398 
	C1439.945312,239.186783 1455.142578,239.577835 1470.267700,238.806473 
	C1481.499634,238.233673 1492.173706,234.952560 1499.892090,225.636322 
	C1505.814697,218.487503 1508.094238,209.868149 1509.939819,201.120956 
	C1511.381958,194.285904 1512.312500,187.342926 1513.508301,180.221954 
	C1516.055298,180.221954 1518.668701,180.221954 1520.838013,180.221954 
	C1521.410156,202.581970 1521.982300,224.940781 1522.559448,247.500000 
	C1441.681519,247.500000 1360.582397,247.500000 1279.242188,247.500000 
	C1279.242188,245.299194 1279.242188,243.026871 1279.242188,240.557343 
	C1281.977539,240.053650 1284.832886,239.616684 1287.646606,238.992203 
	C1294.647949,237.438293 1296.082642,233.627335 1292.049072,227.572678 
	C1283.018433,214.017212 1274.001099,200.452850 1264.979980,186.891022 
	C1254.969482,171.841995 1245.216675,156.612854 1234.858154,141.807312 
	C1228.358643,132.517319 1219.303345,127.005547 1207.292236,127.303040 
	C1207.197632,127.945381 1207.021118,128.586868 1207.020752,129.228455 
	C1207.004395,158.057632 1206.929810,186.887192 1207.085693,215.715515 
	C1207.107422,219.732269 1207.891602,223.850525 1208.989746,227.733231 
	C1211.098145,235.188812 1215.293213,238.278244 1222.998291,239.017593 
	C1226.750610,239.377655 1230.485229,239.921112 1234.627930,240.430756 
	C1234.627930,242.552521 1234.627930,244.948074 1234.627930,247.499969 
	C1205.662720,247.499969 1176.580200,247.499969 1147.248779,247.499969 
	C1147.248779,245.320892 1147.248779,243.041809 1147.248779,240.702271 
	C1152.238770,239.863327 1157.317993,238.887711 1162.434082,238.178879 
	C1169.426758,237.210007 1172.291382,232.255875 1173.749023,226.295334 
	C1174.637329,222.663086 1174.945557,218.808243 1174.950195,215.052673 
	C1175.021484,157.061127 1175.050171,99.069313 1174.911377,41.077988 
	C1174.899414,36.064281 1174.468140,30.729021 1172.676880,26.151628 
	C1171.408813,22.911402 1167.955933,19.476898 1164.695435,18.302246 
	C1159.291016,16.355194 1153.256226,16.157343 1147.215332,15.178583 
	C1147.215332,13.240642 1147.215332,10.961913 1147.215332,8.500000 
	C1176.289185,8.500000 1205.377441,8.500000 1234.733765,8.500000 
	C1234.733765,10.660925 1234.733765,12.932306 1234.733765,15.453850 
	C1230.555664,15.954720 1226.206543,16.396191 1221.882446,17.011486 
	C1213.482544,18.206711 1209.366943,22.166237 1208.060791,30.379456 
	C1207.546265,33.615002 1207.056396,36.899490 1207.046509,40.163177 
	C1206.969238,65.825882 1207.009277,91.488930 1207.029175,117.151863 
	C1207.029541,117.619675 1207.228149,118.087349 1207.434082,118.995522 
	C1218.282349,119.006340 1227.703003,115.189095 1236.623291,108.749245 
z"/>
<path fill="#FFFFFF" opacity="1.000000" stroke="none" 
	d="
M157.000000,123.000000 
	C168.135727,123.000000 178.771454,123.000000 190.000000,123.000000 
	C190.000000,120.892014 190.000000,119.121368 190.000000,117.350731 
	C190.000000,91.520042 190.043747,65.689201 189.953369,39.858829 
	C189.939636,35.935612 189.586395,31.963709 188.892929,28.103662 
	C187.648392,21.176308 180.413940,16.405510 171.036453,16.016525 
	C168.565750,15.914038 166.087158,16.001064 163.307953,16.001064 
	C163.307953,13.307020 163.307953,10.916958 163.307953,8.500000 
	C192.018234,8.500000 220.647934,8.500000 249.639587,8.500000 
	C249.639587,10.605791 249.639587,12.993746 249.639587,15.468452 
	C245.854813,15.947991 241.985260,16.361078 238.140579,16.939495 
	C225.252899,18.878403 223.334259,25.409639 223.142715,36.474731 
	C222.695694,62.297684 222.999985,88.133636 223.000000,113.964325 
	C223.000000,149.127396 222.950958,184.290588 223.046387,219.453400 
	C223.063095,225.606262 223.771011,232.252686 229.487686,235.620361 
	C233.769608,238.142807 239.234650,238.716492 244.226471,239.939194 
	C245.796371,240.323730 247.539963,239.999191 249.601685,239.999191 
	C249.601685,242.506226 249.601685,244.891800 249.601685,247.499939 
	C221.042267,247.499939 192.294220,247.499939 163.272858,247.499939 
	C163.272858,245.241287 163.272858,242.848236 163.272858,240.483276 
	C167.005386,239.973785 170.542664,239.416809 174.097717,239.018982 
	C186.891769,237.587280 189.611176,230.894836 189.782990,221.415863 
	C190.323425,191.598297 189.917023,161.763535 189.865280,131.935455 
	C189.865051,131.804794 189.692795,131.674438 189.409332,131.271973 
	C153.667786,131.271973 117.732674,131.271973 81.000061,131.271973 
	C81.000061,132.714172 81.000061,134.289932 81.000061,135.865692 
	C81.000061,159.696579 80.850052,183.529007 81.092690,207.357422 
	C81.164223,214.383011 82.168617,221.420319 83.077194,228.409134 
	C83.754875,233.621918 89.416023,237.826508 96.762840,238.968552 
	C100.632957,239.570145 104.539124,239.939789 108.718796,240.449509 
	C108.718796,242.738174 108.718796,245.130859 108.718796,247.499908 
	C79.929512,247.499908 51.299660,247.499908 22.335218,247.499908 
	C22.335218,245.381073 22.335218,242.984604 22.335218,240.653732 
	C27.450626,239.761536 32.570282,238.944412 37.657780,237.960953 
	C43.281807,236.873779 46.380085,233.030182 47.611870,227.763229 
	C48.427868,224.274155 48.938923,220.625916 48.943657,217.048065 
	C49.022633,157.387619 49.043468,97.726936 48.906216,38.066696 
	C48.896637,33.903488 48.152519,29.515560 46.691345,25.630262 
	C43.840561,18.049965 36.697205,16.967583 29.807951,16.052008 
	C27.393763,15.731166 24.901096,16.000805 22.226429,16.000805 
	C22.226429,13.262090 22.226429,10.982764 22.226429,8.500000 
	C50.933586,8.500000 79.689400,8.500000 108.723572,8.500000 
	C108.723572,10.763687 108.723572,13.151339 108.723572,14.750986 
	C102.231850,16.224405 96.008392,17.311842 89.990097,19.092625 
	C83.737602,20.942701 82.249039,26.895298 82.185989,32.069881 
	C81.819527,62.143406 82.006691,92.223679 82.006691,123.000000 
	C106.327194,123.000000 131.413589,123.000000 157.000000,123.000000 
z"/>
<path fill="#FFFFFF" opacity="1.000000" stroke="none" 
	d="
M1758.877319,19.647570 
	C1753.188599,24.052805 1752.197754,30.293325 1752.135742,36.229607 
	C1751.836304,64.883682 1752.000854,93.542595 1752.000854,122.599792 
	C1788.188599,122.599792 1824.238770,122.599792 1860.730469,122.599792 
	C1860.811523,121.369804 1860.986816,119.940765 1860.987793,118.511612 
	C1861.004517,93.184135 1861.060913,67.856361 1860.942383,42.529430 
	C1860.921753,38.109596 1860.637573,33.575874 1859.616943,29.299603 
	C1857.426514,20.122295 1851.630127,16.298437 1840.609375,16.009420 
	C1838.296875,15.948777 1835.981445,16.000603 1833.334961,16.000603 
	C1833.334961,13.359178 1833.334961,10.968081 1833.334961,8.500000 
	C1862.087280,8.500000 1890.840088,8.500000 1919.796387,8.500000 
	C1919.796387,10.778859 1919.796387,13.054605 1919.796387,15.210770 
	C1914.650391,16.109274 1909.561035,17.010874 1904.466919,17.884048 
	C1898.173828,18.962704 1895.430176,23.579456 1894.161255,29.038410 
	C1893.240601,32.999527 1893.049805,37.199631 1893.045044,41.293777 
	C1892.978638,98.613815 1892.959351,155.934021 1893.075562,213.253891 
	C1893.085083,217.951843 1893.802612,222.727798 1894.826416,227.326080 
	C1896.467285,234.696625 1900.905640,238.210846 1908.404175,239.008453 
	C1912.127808,239.404510 1915.838379,239.921982 1919.772095,240.411545 
	C1919.772095,242.723206 1919.772095,245.001038 1919.772095,247.499969 
	C1891.065552,247.499969 1862.322510,247.499969 1833.289551,247.499969 
	C1833.289551,245.271652 1833.289551,242.880112 1833.289551,240.487488 
	C1837.135986,239.980286 1840.836548,239.394943 1844.558350,239.020813 
	C1853.730835,238.098755 1858.322388,234.097595 1859.887329,224.928162 
	C1860.604004,220.728470 1860.938354,216.415314 1860.953125,212.151917 
	C1861.045776,185.339630 1861.000000,158.526871 1861.000000,131.357422 
	C1824.724731,131.357422 1788.675171,131.357422 1752.267456,131.357422 
	C1752.181030,132.731384 1752.012329,134.170319 1752.011475,135.609344 
	C1751.995850,163.269623 1751.876709,190.930878 1752.092773,218.589462 
	C1752.142334,224.934296 1752.473755,232.195786 1758.620117,235.704590 
	C1763.198242,238.318085 1769.064453,238.709442 1774.388428,239.956223 
	C1775.637939,240.248810 1777.014282,239.999466 1778.665527,239.999466 
	C1778.665527,242.615829 1778.665527,245.012772 1778.665527,247.499924 
	C1750.049438,247.499924 1721.423950,247.499924 1692.399536,247.499924 
	C1692.399536,245.491272 1692.399536,243.099533 1692.399536,240.490540 
	C1695.869751,240.014740 1699.560059,239.526413 1703.244995,239.000198 
	C1714.653320,237.371002 1718.353394,233.341461 1718.870361,220.633499 
	C1719.438843,206.659851 1719.000000,192.645233 1719.000000,178.648468 
	C1719.000000,132.159195 1719.024658,85.669891 1718.955444,39.180721 
	C1718.949707,35.260021 1718.619873,31.283110 1717.897095,27.434372 
	C1716.974976,22.523811 1713.684448,19.253263 1708.890869,18.113646 
	C1703.533081,16.839874 1698.037354,16.146711 1692.261597,15.141747 
	C1692.261597,13.335719 1692.261597,11.061901 1692.261597,8.500000 
	C1720.881226,8.500000 1749.621948,8.500000 1778.682861,8.500000 
	C1778.682861,10.686029 1778.682861,13.073435 1778.682861,14.712784 
	C1772.004517,16.305122 1765.573608,17.838474 1758.877319,19.647570 
z"/>
<path fill="#FFFFFF" opacity="1.000000" stroke="none" 
	d="
M1043.170410,239.999084 
	C1045.252563,239.999756 1046.880005,239.999756 1048.750732,239.999756 
	C1048.750732,242.684753 1048.750732,244.962738 1048.750732,247.499939 
	C1020.109924,247.499939 991.365173,247.499939 962.309814,247.499939 
	C962.309814,245.318497 962.309814,242.924774 962.309814,240.648468 
	C967.516296,239.746002 972.642395,238.943802 977.731628,237.952652 
	C983.606689,236.808472 986.574829,232.608414 987.785645,227.220505 
	C988.606812,223.566666 988.936279,219.733154 988.949768,215.978073 
	C989.044617,189.652206 989.000000,163.325821 989.000000,136.999603 
	C989.000000,135.196915 989.000000,133.394226 989.000000,131.297485 
	C952.604492,131.297485 916.556274,131.297485 880.000000,131.297485 
	C880.000000,132.876938 880.000000,134.325775 880.000000,135.774612 
	C880.000000,161.934204 879.903320,188.094498 880.089478,214.252762 
	C880.122864,218.934616 881.167175,223.637375 882.025024,228.278671 
	C883.340759,235.397888 888.860962,237.771042 895.044189,238.936035 
	C899.061707,239.692963 903.183960,239.893829 907.639282,240.385773 
	C907.639282,242.574768 907.639282,244.969742 907.639282,247.499969 
	C878.642944,247.499969 849.563354,247.499969 820.241760,247.499969 
	C820.241760,245.299164 820.241760,243.021988 820.241760,240.724869 
	C825.419128,239.844971 830.668701,238.908417 835.933838,238.068954 
	C842.937988,236.952240 845.541321,231.717255 846.849670,225.796906 
	C847.763794,221.660355 847.950073,217.297684 847.955139,213.035416 
	C848.022278,156.217514 848.075623,99.399254 847.881958,42.581936 
	C847.862793,36.963749 846.877991,31.113722 845.034790,25.826864 
	C843.964478,22.757149 840.722107,19.378002 837.687683,18.295973 
	C832.402466,16.411316 826.522278,16.195129 820.395630,15.198924 
	C820.395630,13.473376 820.395630,11.079700 820.395630,8.500000 
	C849.292236,8.500000 878.377686,8.500000 907.732422,8.500000 
	C907.732422,10.780249 907.732422,13.167728 907.732422,15.161575 
	C901.854553,16.136280 896.178955,16.770226 890.665588,18.084597 
	C885.870605,19.227695 882.644409,22.409311 881.991455,27.599030 
	C881.298523,33.106770 880.137695,38.617043 880.090332,44.134022 
	C879.881165,68.458977 880.000000,92.786758 880.000000,117.113518 
	C880.000000,118.905991 880.000000,120.698463 880.000000,122.742523 
	C916.357117,122.742523 952.287842,122.742523 989.000000,122.742523 
	C989.000000,121.102531 989.000000,119.357483 989.000000,117.612427 
	C989.000000,91.452827 989.074707,65.292786 988.918091,39.134129 
	C988.895081,35.284225 987.840393,31.429062 987.147949,27.597118 
	C985.942932,20.929392 981.096497,18.183554 975.119934,17.063810 
	C970.961792,16.284748 966.703674,16.039326 962.244141,15.527245 
	C962.244141,13.299572 962.244141,11.020531 962.244141,8.500000 
	C990.897217,8.500000 1019.646423,8.500000 1048.699097,8.500000 
	C1048.699097,10.716030 1048.699097,13.102177 1048.699097,15.482270 
	C1044.550781,15.992041 1040.516479,16.520550 1036.473999,16.978323 
	C1025.029419,18.274355 1022.219910,24.902712 1022.135925,33.401615 
	C1021.547180,92.981308 1021.284668,152.564529 1021.089050,212.147202 
	C1021.072571,217.158981 1022.027344,222.232285 1023.030945,227.175461 
	C1024.561646,234.714737 1027.967407,237.736145 1035.440674,238.963074 
	C1037.857178,239.359833 1040.290283,239.656158 1043.170410,239.999084 
z"/>
<path fill="#FFFFFF" opacity="1.000000" stroke="none" 
	d="
M270.225983,238.352753 
	C275.943420,237.988205 279.192993,234.642365 280.767426,230.136688 
	C282.141022,226.205841 282.900848,221.852859 282.910034,217.684143 
	C283.041656,157.853821 283.028778,98.023109 282.980652,38.192543 
	C282.967957,22.402128 277.042969,16.490328 260.968842,16.005859 
	C259.497253,15.961507 258.023193,15.999957 256.282776,15.999957 
	C256.282776,13.257228 256.282776,10.868088 256.282776,7.618579 
	C263.689209,8.087372 270.891754,8.778981 278.106232,8.942823 
	C288.100647,9.169795 298.105988,9.125150 308.103088,8.969289 
	C321.537201,8.759842 334.972260,7.949153 348.398956,8.100129 
	C364.132477,8.277044 379.712524,9.717569 394.536346,15.945431 
	C413.933044,24.094467 430.089111,42.119808 430.279114,66.364708 
	C430.505615,95.264336 411.916382,118.547401 386.339325,127.293999 
	C381.943634,128.797211 377.588104,130.417908 371.848450,132.473389 
	C375.011993,133.589951 376.817474,134.510773 378.727203,134.857651 
	C399.596191,138.648132 409.889496,152.767334 414.983490,171.917496 
	C420.032684,190.899033 424.963959,209.911926 429.942627,228.912186 
	C431.211823,233.755829 433.758392,237.798386 438.822754,238.885452 
	C445.212585,240.257050 450.296173,237.019714 454.635437,232.705292 
	C456.596436,230.755508 458.151184,228.397156 459.874207,226.244171 
	C465.802917,230.452774 465.813171,230.459869 462.002045,235.972885 
	C449.001617,254.778488 425.670380,257.513733 409.151215,246.958649 
	C403.371521,243.265656 398.815399,238.063568 397.064850,231.306290 
	C392.505035,213.705048 388.303864,196.010513 384.006653,178.341766 
	C381.276001,167.114212 378.749298,155.795654 371.989044,146.105652 
	C366.993866,138.945694 360.194855,134.939499 351.232300,134.985626 
	C339.741394,135.044785 328.249939,135.000000 316.000031,135.000000 
	C316.000031,136.756729 316.000031,138.337845 316.000031,139.918961 
	C316.000031,166.417755 315.901306,192.917191 316.073059,219.414871 
	C316.113434,225.638519 316.562103,232.541214 322.733948,235.874069 
	C327.137482,238.252014 332.564941,238.787201 337.581757,239.944138 
	C339.132141,240.301682 340.834625,239.999695 342.731476,239.999695 
	C342.731476,242.765305 342.731476,245.158310 342.731476,247.499939 
	C313.903351,247.499939 285.273499,247.499939 256.321960,247.499939 
	C256.321960,245.343567 256.321960,242.949890 256.321960,240.553513 
	C260.870850,239.899887 265.380005,239.251953 270.225983,238.352753 
M316.000000,39.598026 
	C316.000000,68.652824 316.000000,97.707626 316.000000,127.885605 
	C330.569000,126.885742 344.530701,126.933922 358.129608,124.736763 
	C374.721710,122.055977 387.037292,112.979660 392.101624,95.872421 
	C396.817444,79.942276 397.128510,64.034622 392.554108,48.081802 
	C388.102478,32.557232 378.291718,21.784094 362.407318,18.451145 
	C352.529785,16.378586 342.142578,16.196697 331.982697,16.182604 
	C324.165955,16.171759 318.859680,20.792402 317.328186,27.429188 
	C316.487793,31.071064 316.417511,34.890663 316.000000,39.598026 
z"/>
<path fill="#FFFFFF" opacity="1.000000" stroke="none" 
	d="
M1568.720947,242.300217 
	C1565.834839,240.696365 1563.281738,239.261765 1560.666382,237.951187 
	C1553.278198,234.249039 1550.402100,235.536499 1548.252686,243.432236 
	C1546.314087,250.553421 1546.313965,250.553375 1538.707031,249.638519 
	C1539.246216,222.649841 1539.784912,195.688797 1540.323975,168.704437 
	C1548.148560,166.795258 1548.198608,167.420456 1549.133423,175.044571 
	C1551.723633,196.170486 1556.401489,216.618927 1572.682983,232.177551 
	C1578.983032,238.198029 1586.562256,241.722427 1595.008301,243.530350 
	C1607.354126,246.173065 1619.499634,245.824905 1630.895508,239.952286 
	C1643.038208,233.694885 1649.785889,223.554825 1652.097534,209.979858 
	C1655.707397,188.781342 1647.535767,172.623062 1630.912354,160.603043 
	C1613.365112,147.914856 1595.176880,136.107147 1577.170776,124.061234 
	C1565.040894,115.946556 1554.121094,106.659821 1547.145264,93.578430 
	C1540.464722,81.050423 1538.803711,67.642891 1540.655762,53.620869 
	C1541.896118,44.231674 1544.842285,35.705723 1550.427124,27.938330 
	C1557.523682,18.068617 1566.954468,11.253839 1578.387695,8.275639 
	C1588.105103,5.744397 1598.353516,4.499649 1608.410034,4.217514 
	C1620.490112,3.878608 1631.897217,7.348601 1642.036865,14.420471 
	C1645.223145,16.642740 1648.798340,18.352488 1652.318970,20.039145 
	C1657.262207,22.407236 1660.671143,20.754793 1661.958984,15.584302 
	C1662.117188,14.949061 1661.959717,14.234483 1662.121704,13.600939 
	C1663.861206,6.796468 1663.870728,6.798899 1671.262451,7.158184 
	C1671.264893,29.959351 1671.264893,52.755119 1671.264893,75.772980 
	C1667.930664,75.772980 1665.327148,75.772980 1663.312256,75.772980 
	C1660.520752,65.663879 1658.446045,55.459618 1654.876343,45.808380 
	C1648.348633,28.160442 1636.198364,16.204346 1617.220337,12.121180 
	C1600.158691,8.450308 1581.040527,15.466109 1572.058105,29.589540 
	C1563.030762,43.783703 1564.829102,64.612946 1576.232788,77.856178 
	C1587.029907,90.395111 1601.511719,97.704102 1614.989990,106.463341 
	C1632.099243,117.582352 1649.922852,127.709053 1664.626465,142.150223 
	C1680.487183,157.727646 1685.911621,176.424164 1683.252075,198.530151 
	C1680.746704,219.354279 1669.758057,233.661346 1652.465454,243.615509 
	C1643.435181,248.813675 1633.133057,250.841782 1622.651611,252.160919 
	C1610.528809,253.686630 1598.678955,252.920319 1587.048828,249.849869 
	C1580.830078,248.207993 1575.020142,245.017624 1568.720947,242.300217 
z"/>
<path fill="#FFFFFF" opacity="1.000000" stroke="none" 
	d="
M799.000000,68.910965 
	C799.000000,71.377884 799.000000,73.356209 799.000000,75.666061 
	C796.008728,75.666061 793.287964,75.666061 791.832031,75.666061 
	C788.473877,64.293755 786.136963,52.923317 781.769897,42.394958 
	C775.106445,26.330147 759.301636,11.673306 738.756775,11.818948 
	C727.355286,11.899772 716.985657,13.701544 707.979248,21.001797 
	C700.064209,27.417406 695.978149,35.823845 695.001099,45.854836 
	C692.846741,67.974350 705.039917,81.912552 722.053040,92.987267 
	C737.473877,103.025475 753.053955,112.819061 768.473755,122.858788 
	C781.613220,131.413818 793.933533,140.939682 802.725220,154.242691 
	C808.709534,163.297943 811.724121,173.233124 812.084167,184.173050 
	C812.541931,198.081177 810.713684,211.387054 803.118103,223.297470 
	C793.005127,239.155502 777.665222,247.283157 759.786804,250.874847 
	C742.826660,254.282074 725.835144,254.275162 709.446350,247.898376 
	C702.807251,245.315140 696.541199,241.762573 690.139954,238.581451 
	C680.782593,233.931183 677.475830,235.590256 676.031433,245.809448 
	C675.870300,246.949860 676.009705,248.132767 676.009705,249.647888 
	C673.128052,249.647888 670.395752,249.647888 667.619995,249.647888 
	C667.619995,222.728638 667.619995,195.720627 667.619995,168.357101 
	C670.945312,168.357101 673.665222,168.357101 675.710022,168.357101 
	C678.153992,179.558029 679.968018,190.824478 683.123779,201.701660 
	C689.140442,222.439774 700.881531,238.375595 723.189636,243.551727 
	C739.460632,247.327072 755.071899,245.204926 768.080750,234.135849 
	C776.446167,227.017807 779.999512,216.965240 781.056091,205.957306 
	C783.237671,183.227081 771.033813,168.201553 754.105652,156.147369 
	C740.324524,146.334167 725.715759,137.691666 711.697632,128.199707 
	C703.735291,122.808258 695.468201,117.517654 688.679016,110.822227 
	C677.717957,100.012436 670.148926,87.260941 668.771606,71.049721 
	C667.626770,57.574257 669.369568,45.107552 675.403015,33.111240 
	C681.430603,21.126453 691.709229,13.810409 703.665588,9.326980 
	C721.590149,2.605591 740.138306,1.502384 758.400696,8.157558 
	C764.737183,10.466698 770.667542,14.207851 776.325989,17.980846 
	C783.749023,22.930405 790.125916,22.480207 791.056274,11.580297 
	C791.177185,10.163907 791.886780,8.797764 792.387817,7.204448 
	C794.952759,7.204448 797.583679,7.204448 800.188904,7.204448 
	C799.793091,27.584446 799.396545,48.003407 799.000000,68.910965 
z"/>
<path fill="#FFFFFF" opacity="1.000000" stroke="none" 
	d="
M630.957520,172.647064 
	C629.950867,179.904724 629.237915,186.742462 627.955017,193.471573 
	C622.145447,223.942856 604.398743,244.888748 572.516052,251.053146 
	C551.780823,255.062225 531.421875,253.170914 512.520142,244.446579 
	C496.062653,236.850449 484.533081,223.161667 479.275360,205.651306 
	C476.212189,195.449738 474.415741,184.513351 474.218292,173.867340 
	C473.372742,128.277847 473.659393,82.667297 472.804779,37.078079 
	C472.542114,23.067850 469.279633,17.145929 451.818420,16.015549 
	C450.029968,15.899770 448.227539,16.000008 446.227844,16.000008 
	C446.227844,13.270629 446.227844,10.990363 446.227844,8.500000 
	C474.933228,8.500000 503.691132,8.500000 532.725525,8.500000 
	C532.725525,10.767569 532.725525,13.155410 532.725525,15.500048 
	C528.489990,16.010782 524.426208,16.369795 520.407532,17.011637 
	C510.952545,18.521767 506.073273,23.697239 506.051941,33.077255 
	C505.942078,81.410042 505.663605,129.747116 506.219543,178.073761 
	C506.374329,191.530182 508.747192,205.152283 515.201965,217.339523 
	C521.925293,230.033829 532.838928,236.992508 547.153992,239.084824 
	C558.412781,240.730423 569.327393,239.959930 580.288330,237.086136 
	C596.843872,232.745529 607.490112,221.870499 613.884033,206.664337 
	C619.304138,193.774048 621.839600,180.103607 621.977478,166.093811 
	C622.377075,125.495705 622.755859,84.896790 622.880249,44.297386 
	C622.894958,39.501534 621.864136,34.499294 620.298157,29.943293 
	C616.837585,19.875622 608.033752,17.325569 598.695435,16.039751 
	C596.742432,15.770843 594.720825,16.000677 592.366089,16.000677 
	C592.366089,13.426886 592.366089,11.031756 592.366089,8.500000 
	C614.355713,8.500000 636.446472,8.500000 658.769348,8.500000 
	C658.769348,10.722974 658.769348,12.999569 658.769348,15.413869 
	C654.338867,16.025995 649.667480,16.077860 645.379456,17.386103 
	C636.159424,20.199091 632.020203,27.052473 632.010559,38.381786 
	C631.981445,72.548225 632.077209,106.714981 631.953552,140.880997 
	C631.915771,151.314056 631.325806,161.745132 630.957520,172.647064 
z"/>
<path fill="#FFFFFF" opacity="1.000000" stroke="none" 
	d="
M1114.000000,178.000000 
	C1114.000000,189.663666 1113.804932,200.832306 1114.088379,211.988770 
	C1114.216187,217.016052 1114.994629,222.081955 1116.016357,227.018875 
	C1117.669312,235.005493 1121.673218,238.228195 1129.779785,239.015198 
	C1133.678345,239.393677 1137.560547,239.938812 1141.727661,240.442001 
	C1141.727661,242.757217 1141.727661,245.149429 1141.727661,247.499969 
	C1112.914307,247.499969 1084.287354,247.499969 1055.330322,247.499969 
	C1055.330322,245.371307 1055.330322,242.975159 1055.330322,240.649429 
	C1060.459351,239.757126 1065.670044,239.250168 1070.640503,237.874741 
	C1075.723511,236.468140 1079.820068,233.690063 1080.219727,227.481781 
	C1080.490723,223.274414 1081.912109,219.108246 1081.920532,214.921829 
	C1082.038086,156.770996 1082.026123,98.619820 1081.943848,40.468864 
	C1081.938110,36.388119 1081.557861,32.205593 1080.605591,28.250000 
	C1078.685425,20.273920 1072.265991,16.321648 1061.689697,16.009117 
	C1059.702881,15.950408 1057.713013,16.000713 1055.363037,16.000713 
	C1055.363037,13.419996 1055.363037,11.025674 1055.363037,8.629028 
	C1083.953979,8.629028 1112.628540,8.629028 1141.650269,8.629028 
	C1141.650269,11.299993 1141.650269,13.351268 1141.650269,15.509714 
	C1137.343628,16.001680 1132.966675,16.416031 1128.615479,17.017469 
	C1120.759888,18.103285 1116.300293,22.327412 1115.099121,30.257256 
	C1114.410767,34.801502 1114.053101,39.439613 1114.045288,44.036312 
	C1113.969849,88.524109 1114.000000,133.012085 1114.000000,178.000000 
z"/>
<path fill="#FFFFFF" opacity="1.000000" stroke="none" 
	d="
M1973.349487,217.873642 
	C1978.049072,226.850937 1979.061523,235.287491 1972.779907,243.832626 
	C1964.966797,254.461273 1949.526245,255.446381 1940.249512,247.083862 
	C1928.697876,236.670563 1931.244873,216.533859 1946.562012,210.203476 
	C1952.453735,207.768509 1963.522705,208.001297 1969.217529,213.717804 
	C1970.508057,215.013245 1971.791992,216.315186 1973.349487,217.873642 
z"/>
<path fill="#4C6971" opacity="1.000000" stroke="none" 
	d="
M316.000000,39.114075 
	C316.417511,34.890663 316.487793,31.071064 317.328186,27.429188 
	C318.859680,20.792402 324.165955,16.171759 331.982697,16.182604 
	C342.142578,16.196697 352.529785,16.378586 362.407318,18.451145 
	C378.291718,21.784094 388.102478,32.557232 392.554108,48.081802 
	C397.128510,64.034622 396.817444,79.942276 392.101624,95.872421 
	C387.037292,112.979660 374.721710,122.055977 358.129608,124.736763 
	C344.530701,126.933922 330.569000,126.885742 316.000000,127.885605 
	C316.000000,97.707626 316.000000,68.652824 316.000000,39.114075 
z"/>
</svg>