<?xml version="1.0" encoding="UTF-8"?>
<svg version="1.1" xmlns="http://www.w3.org/2000/svg" width="2000" height="258">
<path d="M0 0 C29.04 0 58.08 0 88 0 C88 2.64 88 5.28 88 8 C86.91460938 8.10957031 85.82921875 8.21914062 84.7109375 8.33203125 C83.26555848 8.49158608 81.82024949 8.65177611 80.375 8.8125 C79.66214844 8.88275391 78.94929688 8.95300781 78.21484375 9.02539062 C72.80026013 9.64632911 67.99183563 10.72361643 64.25 15 C59.9328546 25.36114896 60.65794903 36.9962981 60.5859375 48.01171875 C60.56719536 49.83446601 60.54761975 51.65720487 60.5272522 53.47993469 C60.47624648 58.24237076 60.43645327 63.00483486 60.39910889 67.76739502 C60.35886973 72.64122267 60.30786893 77.51493691 60.2578125 82.38867188 C60.16142765 91.92570121 60.07690483 101.46279506 60 111 C62.37030412 110.56305143 64.73808542 110.11635447 67.10546875 109.6640625 C68.09927551 109.48242554 68.09927551 109.48242554 69.11315918 109.29711914 C86.27570141 105.97941383 96.57080838 94.11739584 106.60888672 80.83056641 C108.86829278 77.85741326 111.18653087 74.93113494 113.5 72 C114.41555841 70.83348543 115.3309228 69.66681856 116.24609375 68.5 C118.08408188 66.15991138 119.93114813 63.82741334 121.78515625 61.5 C138.38005154 42.44590777 138.38005154 42.44590777 146.625 19.5 C145.8990548 15.43470689 145.07127369 13.74798172 142 11 C136.96770264 8.60366792 131.49052685 8.41233206 126 8 C126 5.36 126 2.72 126 0 C148.77 0 171.54 0 195 0 C195 2.64 195 5.28 195 8 C194.27296875 8.14695312 193.5459375 8.29390625 192.796875 8.4453125 C171.53943589 13.18735661 159.64463697 26.41349491 147 43 C146.13747879 44.11907579 145.27422835 45.23759001 144.41015625 46.35546875 C142.76188763 48.49097566 141.11944224 50.63079059 139.48046875 52.7734375 C136.93079262 56.09962885 134.34378996 59.39565263 131.75 62.6875 C127.47892334 68.10874664 123.23362259 73.54945546 119 79 C113.02749878 86.68842593 107.02464779 94.35238587 101 102 C104.90289146 107.94031544 108.93615348 113.75839141 113.125 119.5 C117.45984656 125.47035633 121.75777574 131.46347723 126 137.5 C130.12374004 143.36499573 134.29314418 149.19433912 138.5 155 C142.7068583 160.8056643 146.87603835 166.6351578 151 172.5 C155.70662298 179.19249715 160.4706556 185.84118276 165.27636719 192.46289062 C167.7857825 195.92259024 170.28239442 199.38834606 172.7265625 202.89453125 C182.8103409 217.61338213 182.8103409 217.61338213 197 228 C197.64710938 228.32871094 198.29421875 228.65742188 198.9609375 228.99609375 C204.22535143 231.33698927 208.43368827 231.1773079 214 230 C215.22009766 229.80470703 215.22009766 229.80470703 216.46484375 229.60546875 C219.00125297 229.03405727 220.78648382 228.36304202 223 227 C227.90174922 218.91591323 226.42069656 207.16170037 226.38818359 198.09130859 C226.39225372 196.18165284 226.39759808 194.27199944 226.40411377 192.36235046 C226.41773877 187.19928777 226.41250914 182.0364058 226.40297651 176.87334013 C226.39535713 171.45987699 226.40243164 166.04642886 226.40713501 160.63296509 C226.41258499 151.54597203 226.40541985 142.45905224 226.39111328 133.37207031 C226.37477843 122.87576921 226.38008443 112.37964286 226.3965925 101.88334596 C226.41021721 92.85802574 226.41212249 83.83275805 226.40427649 74.80743086 C226.39960667 69.42272237 226.39895634 64.03809597 226.40888596 58.65339279 C226.41756799 53.59224852 226.41151102 48.53132916 226.39420319 43.47020912 C226.39024539 41.61589875 226.39136025 39.76156936 226.39799118 37.90726662 C226.40622459 35.37049078 226.39586393 32.83442964 226.38095093 30.29769897 C226.39098918 29.20478249 226.39098918 29.20478249 226.40123022 28.08978689 C226.34130591 22.81201863 225.21629657 18.81046433 223 14 C218.0738309 10.22469117 213.64790613 9.2844913 207.5625 8.75 C206.46518555 8.63398438 206.46518555 8.63398438 205.34570312 8.515625 C203.56524115 8.3294329 201.78276645 8.16265336 200 8 C200 5.36 200 2.72 200 0 C256.1 0 312.2 0 370 0 C369.34 10.89 368.68 21.78 368 33 C367.88671146 38.54887272 367.79114835 44.02506592 367.875 49.5625 C367.88853516 51.41391602 367.88853516 51.41391602 367.90234375 53.30273438 C367.92490681 56.20208808 367.9569718 59.10089252 368 62 C361.84765625 62.09765625 361.84765625 62.09765625 360 62 C357.78895326 59.78895326 358.10303805 54.95861172 357.6875 51.875 C355.31799454 31.50294708 355.31799454 31.50294708 343.9296875 15.41796875 C335.0770914 10.06631223 325.71008681 9.69090642 315.58984375 9.69921875 C314.42296524 9.69493362 313.25608673 9.6906485 312.05384827 9.68623352 C309.59897508 9.68051656 307.14408496 9.67997041 304.68920898 9.68432617 C300.94550654 9.68749323 297.20258977 9.66396817 293.45898438 9.63867188 C291.06510516 9.63639925 288.67122383 9.63569522 286.27734375 9.63671875 C285.16568344 9.627509 284.05402313 9.61829926 282.90867615 9.60881042 C276.08387666 9.64923988 269.4624707 9.88377637 264.125 14.6875 C261.07844396 20.9498652 260.69930421 27.33999541 260.68115234 34.16992188 C260.67110672 35.04891144 260.6610611 35.927901 260.65071106 36.83352661 C260.62005031 39.71192832 260.60289183 42.59023776 260.5859375 45.46875 C260.56721207 47.47514633 260.54763764 49.48153489 260.5272522 51.48791504 C260.47607028 56.74852916 260.43637013 62.00916878 260.39910889 67.26989746 C260.3589816 72.64614089 260.30792916 78.02227955 260.2578125 83.3984375 C260.16121837 93.93221792 260.076761 104.46605769 260 115 C264.10835506 114.95544 268.21544067 114.88519322 272.32299805 114.79248047 C273.71643218 114.76448629 275.11001875 114.74316594 276.50366211 114.72900391 C286.18783254 114.62476095 294.45266063 114.24418341 301.8125 107.375 C308.46391631 98.1635884 310.0539349 86.09193162 311.51953125 75.10546875 C312 72 312 72 313 71 C315.67058851 70.85884839 318.32432238 70.95752893 321 71 C320.99777939 71.67333374 320.99555878 72.34666748 320.99327087 73.04040527 C320.97290742 79.50802847 320.95784748 85.97564223 320.94818783 92.44329071 C320.94305422 95.76527338 320.93555633 99.08720837 320.92456055 102.40917969 C320.87557762 117.61117399 321.02037524 132.7586035 321.77734375 147.94335938 C322.10173902 154.62997629 322.09652958 161.30728272 322 168 C315.84765625 168.09765625 315.84765625 168.09765625 314 168 C312.34138904 166.34138904 312.47615257 164.20894585 312.1328125 161.93359375 C311.88724609 160.36834961 311.88724609 160.36834961 311.63671875 158.77148438 C311.29985257 156.57671121 310.96642743 154.38140668 310.63671875 152.18554688 C309.1589859 142.83229978 307.38551109 134.49029762 300 128 C294.22426069 124.51925644 287.99152928 123.89470642 281.38671875 123.68359375 C280.13955078 123.64169922 278.89238281 123.59980469 277.60742188 123.55664062 C276.31384766 123.51732422 275.02027344 123.47800781 273.6875 123.4375 C272.37458984 123.39431641 271.06167969 123.35113281 269.70898438 123.30664062 C266.47275712 123.20072773 263.23645542 123.09865115 260 123 C260.06135576 134.82275486 260.13856595 146.64529161 260.23571491 158.46780968 C260.28033911 163.95817964 260.31961273 169.44847676 260.34643555 174.93896484 C260.37254785 180.24295639 260.41300617 185.54666642 260.46318626 190.85048294 C260.47980147 192.86851103 260.49134889 194.88658776 260.49761391 196.90467453 C260.50731335 199.74322396 260.53544176 202.58106176 260.56762695 205.41943359 C260.56547432 206.65590637 260.56547432 206.65590637 260.5632782 207.9173584 C260.6579848 213.868356 261.59359265 219.51548478 264 225 C268.89704614 229.36475852 273.668511 230.11026799 280.04296875 230.16113281 C281.02168945 230.17074036 282.00041016 230.1803479 283.00878906 230.19024658 C284.05776367 230.19449646 285.10673828 230.19874634 286.1875 230.203125 C287.2815918 230.20882507 288.37568359 230.21452515 289.50292969 230.22039795 C291.81948891 230.22983597 294.13606148 230.23637717 296.45263672 230.24023438 C299.95955587 230.24988866 303.4658758 230.28090294 306.97265625 230.3125 C330.0829564 230.73163319 330.0829564 230.73163319 349.96484375 220.1796875 C356.61793595 213.00616314 359.521277 205.24610025 361.625 195.8125 C361.83664795 194.89573486 362.0482959 193.97896973 362.26635742 193.03442383 C363.84345172 186.06345865 365.11799264 179.09555172 366 172 C368.97 172 371.94 172 375 172 C374.99476318 173.0923999 374.98952637 174.1847998 374.98413086 175.31030273 C374.96572578 179.44977973 374.95444139 183.5892533 374.94506836 187.72875977 C374.94010781 189.50415662 374.93333727 191.27954955 374.92456055 193.05493164 C374.87501764 203.35111336 375.02730798 213.56132833 375.78344727 223.83227539 C376.06311721 229.21473948 376 234.61027506 376 240 C295.48 240 214.96 240 132 240 C132 237.36 132 234.72 132 232 C132.75925781 231.87882813 133.51851562 231.75765625 134.30078125 231.6328125 C135.29464844 231.46523437 136.28851562 231.29765625 137.3125 231.125 C138.29863281 230.96257812 139.28476563 230.80015625 140.30078125 230.6328125 C143.20059827 230.11914546 143.20059827 230.11914546 146 228 C147.04023035 222.86495632 145.01387928 219.81767907 142.2935791 215.68441772 C141.74810425 214.88621613 141.20262939 214.08801453 140.640625 213.265625 C140.07259155 212.41078522 139.50455811 211.55594543 138.91931152 210.67520142 C137.04262746 207.85780338 135.14670957 205.05394745 133.25 202.25 C131.93923969 200.29262579 130.6296847 198.33444394 129.32128906 196.37548828 C126.59813684 192.30169531 123.86763739 188.23295673 121.1328125 184.16699219 C117.10448516 178.16877111 113.1259529 172.1386797 109.15625 166.1015625 C107.28808679 163.26843673 105.41891049 160.43598295 103.54919434 157.60388184 C102.36145121 155.80240293 101.17593837 153.99945134 99.99279785 152.19494629 C87.60687312 131.72558885 87.60687312 131.72558885 67.53440857 120.47094727 C66.63932083 120.29619873 65.74423309 120.1214502 64.82202148 119.94140625 C63.91959213 119.76424072 63.01716278 119.5870752 62.08738708 119.40454102 C61.05413048 119.20429321 61.05413048 119.20429321 60 119 C60.08462378 130.80543939 60.17959168 142.6107469 60.28752708 154.41599751 C60.3373335 159.89848139 60.38366424 165.38094745 60.421875 170.86352539 C60.45892638 176.16098171 60.50533869 181.45828301 60.55806351 186.7556057 C60.57650247 188.77002411 60.59164854 190.78447562 60.60334396 192.79894447 C59.64773938 210.95115475 59.64773938 210.95115475 66 227 C72.54128908 231.01397285 80.51441817 231.18111396 88 232 C88 234.64 88 237.28 88 240 C58.96 240 29.92 240 0 240 C0 237.36 0 234.72 0 232 C0.99 231.90203125 1.98 231.8040625 3 231.703125 C13.58433967 230.62213103 13.58433967 230.62213103 23 226 C26.94203682 219.26038866 27.15092422 211.89390752 27.13371277 204.24688721 C27.13597833 203.49729382 27.13824388 202.74770044 27.14057809 201.9753921 C27.14687511 199.47999805 27.1460915 196.9846589 27.14526367 194.48925781 C27.14825787 192.69328746 27.151661 190.89731775 27.15544128 189.10134888 C27.16425953 184.23340801 27.1666185 179.36548474 27.16725707 174.49753666 C27.16796888 171.45258719 27.17010568 168.40764215 27.17275429 165.36269379 C27.18200093 154.72942319 27.18609008 144.09616511 27.18530273 133.46289062 C27.18470232 123.5683001 27.19524887 113.67376416 27.2110464 103.77918744 C27.22414507 95.27023731 27.22948565 86.76130497 27.22884732 78.25234485 C27.228593 73.1765849 27.23140808 68.10087346 27.24202538 63.0251236 C27.25174541 58.24805085 27.25175886 53.47107261 27.24450874 48.69399643 C27.2434677 46.9473723 27.24579703 45.20074215 27.2518692 43.45412827 C27.64090611 28.31324175 27.64090611 28.31324175 23.5 14 C16.94560153 8.75648122 8.09033313 8.44604498 0 8 C0 5.36 0 2.72 0 0 Z " fill="#FFFFFF" transform="translate(1146,7)"/>
<path d="M0 0 C28.71 0 57.42 0 87 0 C87 2.64 87 5.28 87 8 C85.92621094 8.09796875 84.85242188 8.1959375 83.74609375 8.296875 C82.30980755 8.44707486 80.87361417 8.59816414 79.4375 8.75 C78.38079102 8.8428125 78.38079102 8.8428125 77.30273438 8.9375 C71.97923707 9.5262739 68.42556652 10.94518417 64 14 C57.70120367 25.33783339 59.81084375 41.94090798 59.68359375 54.6484375 C59.6651308 56.20288538 59.64629129 57.75732883 59.6270752 59.31176758 C59.55934788 64.99945952 59.49883751 70.68723556 59.4375 76.375 C59.293125 89.12125 59.14875 101.8675 59 115 C94.97 115 130.94 115 168 115 C167.896875 100.170625 167.79375 85.34125 167.6875 70.0625 C167.65015747 63.05914429 167.65015747 63.05914429 167.61206055 55.91430664 C167.5754626 51.70053569 167.5754626 51.70053569 167.5349884 47.48680115 C167.51892145 45.62140182 167.50857749 43.7559475 167.50288391 41.89048767 C167.49307832 39.05177754 167.46466481 36.21377626 167.43237305 33.37524414 C167.43379901 32.55510613 167.43522497 31.73496813 167.43669415 30.88997746 C167.33879181 24.82251417 166.65638365 18.036323 162.51340771 13.3007822 C156.86847466 8.44893136 148.05555264 8.38245052 141 8 C141 5.36 141 2.72 141 0 C169.71 0 198.42 0 228 0 C228 2.64 228 5.28 228 8 C226.98679688 8.10957031 225.97359375 8.21914062 224.9296875 8.33203125 C223.57805539 8.49159893 222.22649657 8.65178833 220.875 8.8125 C220.20984375 8.88275391 219.5446875 8.95300781 218.859375 9.02539062 C214.33958024 9.57928704 210.9819613 10.84359663 207 13 C206.34 13 205.68 13 205 13 C201.38335228 22.836493 201.57413181 32.41512498 201.61181641 42.73095703 C201.60774516 44.60958154 201.60240019 46.48820366 201.59588623 48.36682129 C201.5822745 53.44105289 201.5874853 58.51510037 201.59702349 63.58933496 C201.60464978 68.91290417 201.59756646 74.23645822 201.59286499 79.56002808 C201.58741702 88.49561375 201.59457486 97.43112488 201.60888672 106.36669922 C201.62522136 116.6840706 201.61991491 127.00126419 201.6034075 137.31863129 C201.58977724 146.19451958 201.58788021 155.07035447 201.59572351 163.94624984 C201.60039026 169.23987293 201.60105215 174.53341253 201.59111404 179.82703018 C201.58242388 184.80283147 201.58850373 189.77840421 201.60579681 194.75418091 C201.60975028 196.57582089 201.60864723 198.39748023 201.60200882 200.2191124 C201.06333738 214.75434089 201.06333738 214.75434089 207.125 227.4375 C213.52978372 230.91836072 220.84773513 231.31883192 228 232 C228 234.64 228 237.28 228 240 C199.29 240 170.58 240 141 240 C141 237.36 141 234.72 141 232 C141.92941406 231.89042969 142.85882813 231.78085938 143.81640625 231.66796875 C155.37646889 230.6174129 155.37646889 230.6174129 164.375 224.125 C167.2952587 218.50911788 167.16343198 213.0897227 167.20532227 206.89526367 C167.21535499 205.97282773 167.22538771 205.05039179 167.23572445 204.10000324 C167.26703402 201.12268371 167.29184949 198.14535083 167.31640625 195.16796875 C167.33481665 193.32637099 167.3536537 191.48477744 167.3729248 189.64318848 C167.44128685 182.82467553 167.50139443 176.00608184 167.5625 169.1875 C167.706875 153.945625 167.85125 138.70375 168 123 C132.03 123 96.06 123 59 123 C59.12375 135.99375 59.2475 148.9875 59.375 162.375 C59.40899902 166.43989746 59.44299805 170.50479492 59.47802734 174.69287109 C59.51804748 178.41683776 59.51804748 178.41683776 59.56045532 182.14077759 C59.57785238 183.76745447 59.59177878 185.39417124 59.60269165 187.02090454 C59.66576569 196.02807319 59.94645442 204.9430897 60.90087891 213.90478516 C60.97776632 214.64642096 61.05465374 215.38805676 61.13387108 216.15216637 C61.59199973 220.04598674 62.2323026 223.48236498 64 227 C70.33782906 231.07220325 79.73250209 231.12128404 87 232 C87 234.64 87 237.28 87 240 C58.29 240 29.58 240 0 240 C0 237.36 0 234.72 0 232 C1.75376953 231.72736328 1.75376953 231.72736328 3.54296875 231.44921875 C5.09123648 231.19586585 6.6394087 230.94192874 8.1875 230.6875 C9.34088867 230.51057617 9.34088867 230.51057617 10.51757812 230.33007812 C14.92383928 229.59254943 18.36485308 228.77292042 22 226 C25.90862024 219.7182889 26.14924588 213.39571038 26.14044189 206.17059326 C26.14341302 205.40073097 26.14638414 204.63086869 26.1494453 203.83767724 C26.1580906 201.26775024 26.159637 198.69787005 26.16113281 196.12792969 C26.16576392 194.28122357 26.17078897 192.4345184 26.17617798 190.58781433 C26.18927527 185.57732776 26.19574165 180.56685458 26.20018864 175.55635357 C26.2031235 172.42347472 26.20722908 169.29059949 26.21169281 166.15772247 C26.22536032 156.34825081 26.23503079 146.53878746 26.2388947 136.72930694 C26.24337462 125.41931309 26.26092263 114.10944015 26.2898953 102.79948306 C26.3115339 94.04768336 26.32160014 85.29591762 26.32293582 76.54409146 C26.32398222 71.32132644 26.32985512 66.09867519 26.34775543 60.87593842 C26.36427392 55.96096175 26.36637328 51.04618393 26.35761642 46.13118935 C26.35684809 44.33254017 26.36116178 42.53388013 26.37107468 40.7352581 C26.97632113 25.62315874 26.97632113 25.62315874 20.75 12.5 C14.17911142 8.91587896 7.32974648 8.50367155 0 8 C0 5.36 0 2.72 0 0 Z " fill="#FFFFFF" transform="translate(21,7)"/>
<path d="M0 0 C28.71 0 57.42 0 87 0 C87 2.64 87 5.28 87 8 C85.48019531 8.16435547 85.48019531 8.16435547 83.9296875 8.33203125 C82.57805539 8.49159893 81.22649657 8.65178833 79.875 8.8125 C79.20984375 8.88275391 78.5446875 8.95300781 77.859375 9.02539062 C72.60088482 9.66981344 68.12582288 10.95009937 64.25 14.6875 C60.94519768 20.8013843 60.69925289 27.38377642 60.68115234 34.16992188 C60.66592246 35.50951336 60.66592246 35.50951336 60.6503849 36.8761673 C60.6199764 39.74035791 60.6026584 42.60445033 60.5859375 45.46875 C60.5689842 47.24772985 60.55116551 49.02670166 60.5324707 50.80566406 C60.4695116 57.37035065 60.42325049 63.93518882 60.375 70.5 C60.25125 85.185 60.1275 99.87 60 115 C95.97 115 131.94 115 169 115 C168.87625 101.2225 168.7525 87.445 168.625 73.25 C168.59100098 68.92165039 168.55700195 64.59330078 168.52197266 60.13378906 C168.48200267 56.20747574 168.48200267 56.20747574 168.43954468 52.28118896 C168.42201733 50.55091447 168.40814437 48.82060033 168.39730835 47.090271 C168.5727419 30.42150391 168.5727419 30.42150391 164.5 14.4375 C158.40843256 8.49822175 149.0989733 8.44652134 141 8 C141 5.36 141 2.72 141 0 C169.71 0 198.42 0 228 0 C228 2.64 228 5.28 228 8 C226.98679687 8.10957031 225.97359375 8.21914062 224.9296875 8.33203125 C223.57805539 8.49159893 222.22649657 8.65178833 220.875 8.8125 C220.20984375 8.88275391 219.5446875 8.95300781 218.859375 9.02539062 C213.60857587 9.66887091 208.96844263 10.72100258 205.40468884 14.84699821 C199.98959211 23.14685269 201.71018793 35.48556293 201.7253418 45.01904297 C201.72098859 46.83353891 201.71580341 48.64803301 201.70985413 50.46252441 C201.69651852 55.36756111 201.69587937 60.2725205 201.69841743 65.17757177 C201.69949082 69.28271095 201.69459437 73.38783472 201.689812 77.49297059 C201.67873565 87.18298832 201.67826889 96.87296729 201.68432617 106.56298828 C201.69036517 116.53661094 201.67805248 126.5100925 201.6567561 136.4836911 C201.63910424 145.06830708 201.63314439 153.6528783 201.63639385 162.23751175 C201.63820111 167.35519701 201.63562632 172.47278158 201.62167931 177.59045029 C201.6090471 182.40536528 201.61109581 187.22006127 201.62409019 192.03497314 C201.6264438 193.7940796 201.62376528 195.55320173 201.61546707 197.31229019 C201.50138862 211.41497598 201.50138862 211.41497598 205 225 C209.23376429 229.24632739 214.14407049 229.92435761 219.875 230.75 C220.65875 230.87503906 221.4425 231.00007812 222.25 231.12890625 C224.1646246 231.4324443 226.08207339 231.7180776 228 232 C228 234.64 228 237.28 228 240 C199.29 240 170.58 240 141 240 C141 237.36 141 234.72 141 232 C142.485 231.85304687 142.485 231.85304687 144 231.703125 C154.75521005 230.89758669 154.75521005 230.89758669 164 226 C168.50631222 218.83448587 168.14517163 209.3016759 168.20532227 201.10546875 C168.21535499 200.24214432 168.22538771 199.37881989 168.23572445 198.48933411 C168.26685953 195.72208246 168.2917764 192.95481636 168.31640625 190.1875 C168.3348328 188.46809448 168.35367068 186.74869332 168.3729248 185.02929688 C168.44109168 178.68624943 168.50132376 172.34311872 168.5625 166 C168.706875 151.81 168.85125 137.62 169 123 C133.03 123 97.06 123 60 123 C60.103125 137.97375 60.20625 152.9475 60.3125 168.375 C60.33739502 173.08700684 60.36229004 177.79901367 60.38793945 182.65380859 C60.42454314 186.91147121 60.42454314 186.91147121 60.4650116 191.1690979 C60.48106435 193.05195376 60.4914178 194.93486387 60.49711609 196.81777954 C60.50693622 199.68528864 60.53536594 202.55210016 60.56762695 205.41943359 C60.56620099 206.24534185 60.56477503 207.07125011 60.56330585 207.9221859 C60.67272119 214.78851973 61.58980597 222.12028766 66.10546875 227.515625 C70.08606448 229.55695614 73.90862958 230.15910973 78.3125 230.75 C79.14845703 230.87503906 79.98441406 231.00007812 80.84570312 231.12890625 C82.8950879 231.43338627 84.94731402 231.71863494 87 232 C87 234.64 87 237.28 87 240 C58.29 240 29.58 240 0 240 C0 237.36 0 234.72 0 232 C0.90621094 231.89042969 1.81242187 231.78085938 2.74609375 231.66796875 C6.51062701 231.17798188 10.25352092 230.61255723 14 230 C14.93328125 229.85175781 15.8665625 229.70351562 16.828125 229.55078125 C19.2642758 228.98207717 20.90504529 228.36127396 23 227 C27.83641238 218.79487569 26.42132629 207.38816367 26.38818359 198.19897461 C26.39225381 196.30079345 26.39759821 194.40261465 26.40411377 192.50444031 C26.41773869 187.37230086 26.41250892 182.24034323 26.40297651 177.10820079 C26.39535598 171.72590204 26.40243206 166.34361836 26.40713501 160.96131897 C26.41258513 151.92560037 26.40541998 142.88995545 26.39111328 133.85424805 C26.37478329 123.42045056 26.38008085 112.98682892 26.3965925 102.55303568 C26.41022266 93.57950398 26.41211969 84.60602511 26.40427649 75.6324864 C26.39960903 70.27960393 26.3989497 64.92680403 26.40888596 59.57392693 C26.41757577 54.54150631 26.41149688 49.50931167 26.39420319 44.47691536 C26.39024932 42.63431294 26.39135346 40.79169138 26.39799118 38.94909668 C26.63220986 26.13262444 26.63220986 26.13262444 23 14 C16.86240475 8.6945141 7.74633868 8.76656477 0 8 C0 5.36 0 2.72 0 0 Z " fill="#FFFFFF" transform="translate(1691,7)"/>
<path d="M0 0 C29.04 0 58.08 0 88 0 C88 2.64 88 5.28 88 8 C86.91460938 8.10957031 85.82921875 8.21914062 84.7109375 8.33203125 C83.26555848 8.49158608 81.82024949 8.65177611 80.375 8.8125 C79.66214844 8.88275391 78.94929687 8.95300781 78.21484375 9.02539062 C72.88923102 9.63612603 68.09919149 10.597901 64.40609741 14.82389832 C58.69210026 23.66698324 60.64771918 37.9704038 60.5859375 48.10546875 C60.56896951 49.82182669 60.55114927 51.53817642 60.5324707 53.2545166 C60.46968968 59.56541709 60.42330598 65.87647212 60.375 72.1875 C60.25125 86.315625 60.1275 100.44375 60 115 C95.97 115 131.94 115 169 115 C168.87625 100.500625 168.7525 86.00125 168.625 71.0625 C168.59100098 66.49801025 168.55700195 61.93352051 168.52197266 57.23071289 C168.48202734 53.11008689 168.48202734 53.11008689 168.43954468 48.98948669 C168.42195351 47.16574603 168.40810753 45.34196674 168.39730835 43.51817322 C168.38012502 40.74250128 168.35075269 37.96718722 168.31884766 35.19165039 C168.31558944 33.98954847 168.31558944 33.98954847 168.3122654 32.76316166 C168.21707982 26.27871994 167.5306143 19.9336774 164.5 14.125 C158.37272373 8.91681517 149.75060221 8.47822865 142 8 C142 5.36 142 2.72 142 0 C170.71 0 199.42 0 229 0 C229 2.64 229 5.28 229 8 C227.92621094 8.09796875 226.85242187 8.1959375 225.74609375 8.296875 C224.30980755 8.44707486 222.87361417 8.59816414 221.4375 8.75 C220.38079102 8.8428125 220.38079102 8.8428125 219.30273438 8.9375 C213.97984601 9.52620655 210.41637507 10.92919559 206 14 C199.49947379 22.91389523 201.85106616 38.60316996 201.85473633 49.06933594 C201.85173955 50.78206454 201.84833583 52.49479247 201.84455872 54.20751953 C201.83576725 58.83582258 201.83338265 63.46410712 201.83274293 68.09241772 C201.83202966 70.99083585 201.82989011 73.88924935 201.82724571 76.78766632 C201.8180083 86.91866858 201.81390881 97.04965773 201.81469727 107.18066406 C201.8152976 116.59299505 201.8047503 126.00526866 201.7889536 135.41758513 C201.7758366 143.52494758 201.77051511 151.63229136 201.77115268 159.73966432 C201.77140644 164.57011325 201.76862263 169.40051113 201.75797462 174.2309494 C201.74822334 178.77825549 201.74826215 183.32546243 201.75549126 187.87277222 C201.75652842 189.53106076 201.75422655 191.1893557 201.7481308 192.84763336 C201.04263661 210.78696394 201.04263661 210.78696394 207 227 C213.54128908 231.01397285 221.51441817 231.18111396 229 232 C229 234.64 229 237.28 229 240 C200.29 240 171.58 240 142 240 C142 237.36 142 234.72 142 232 C143.75376953 231.72736328 143.75376953 231.72736328 145.54296875 231.44921875 C147.09123648 231.19586585 148.6394087 230.94192874 150.1875 230.6875 C151.34088867 230.51057617 151.34088867 230.51057617 152.51757812 230.33007812 C156.92383928 229.59254943 160.36485308 228.77292042 164 226 C168.12945106 219.36338222 168.15275654 212.53493986 168.20532227 204.96533203 C168.21535499 204.06259993 168.22538771 203.15986782 168.23572445 202.2297802 C168.26697844 199.32248329 168.29182635 196.41517268 168.31640625 193.5078125 C168.33482179 191.70694548 168.35365911 189.90608273 168.3729248 188.10522461 C168.44122477 181.44520017 168.50137201 174.78509413 168.5625 168.125 C168.706875 153.23375 168.85125 138.3425 169 123 C133.03 123 97.06 123 60 123 C60.12375 137.293125 60.2475 151.58625 60.375 166.3125 C60.40899902 170.80657471 60.44299805 175.30064941 60.47802734 179.9309082 C60.51798735 183.99960855 60.51798735 183.99960855 60.56045532 188.06828308 C60.5780085 189.86443576 60.5918706 191.66062704 60.60269165 193.45683289 C59.7093835 211.27268141 59.7093835 211.27268141 66 227 C72.54128908 231.01397285 80.51441817 231.18111396 88 232 C88 234.64 88 237.28 88 240 C58.96 240 29.92 240 0 240 C0 237.36 0 234.72 0 232 C0.99 231.90203125 1.98 231.8040625 3 231.703125 C13.58433967 230.62213103 13.58433967 230.62213103 23 226 C27.12662466 219.07791992 27.15170935 211.07412645 27.13371277 203.20256042 C27.13597833 202.46027972 27.13824388 201.71799902 27.14057809 200.95322496 C27.14686209 198.48857579 27.14609236 196.02398241 27.14526367 193.55932617 C27.14825865 191.78291249 27.15166196 190.00649946 27.15544128 188.23008728 C27.16425075 183.42005498 27.1666181 178.61004049 27.16725707 173.80000091 C27.16796928 170.79072559 27.17010684 167.78145476 27.17275429 164.77218056 C27.18199745 154.26209858 27.18609044 143.75202926 27.18530273 133.24194336 C27.18470215 123.46377934 27.19525291 113.68567053 27.2110464 103.90752047 C27.22414534 95.49621389 27.22948565 87.0849253 27.22884732 78.6736086 C27.22859304 73.65710813 27.23140581 68.64065675 27.24202538 63.62416649 C27.25174609 58.90371366 27.25175841 54.18335647 27.24450874 49.46290016 C27.24346785 47.73723841 27.24579617 46.01157057 27.2518692 44.28591919 C28.06844533 27.66993201 28.06844533 27.66993201 22 13 C17.234992 10.14243478 13.03463618 9.34563774 7.625 8.8125 C6.88894531 8.73064453 6.15289063 8.64878906 5.39453125 8.56445312 C3.59745375 8.36607444 1.79885107 8.18159423 0 8 C0 5.36 0 2.72 0 0 Z " fill="#FFFFFF" transform="translate(819,7)"/>
<path d="M0 0 C12.98825997 -0.04659835 25.97649964 -0.0820077 38.96482658 -0.10362434 C44.99757746 -0.11400578 51.03027061 -0.12806041 57.06298828 -0.15087891 C62.89854617 -0.17281036 68.73404897 -0.18461088 74.56964493 -0.18975449 C76.7820637 -0.19341416 78.9944799 -0.20055903 81.20687485 -0.21146011 C108.52726899 -0.34056739 138.12249546 0.69603363 159.0378418 20.7253418 C169.86885105 31.73721327 174.33582941 44.18184585 174.5 59.4375 C174.32519846 77.16962031 168.28715302 91.57272695 155.8515625 104.2734375 C144.90413994 114.74097304 131.40985243 119.99071209 117 124 C118.2375 124.391875 119.475 124.78375 120.75 125.1875 C135.25744313 130.09174571 146.11743821 135.36658721 154 149 C159.90787251 161.26295937 162.39491984 174.97658834 165.5625 188.125 C166.41077384 191.63468161 167.26170285 195.1436287 168.12010193 198.65084839 C168.65049165 200.81874064 169.17520506 202.98803315 169.69300842 205.15896606 C172.55216644 219.27567719 172.55216644 219.27567719 181 230 C185.89042712 231.11486749 189.86283928 230.43122198 194.1875 227.9375 C198.12469692 225.19171938 201.10694386 221.80261546 204 218 C206.97 219.98 206.97 219.98 210 222 C205.91652417 230.53817674 198.82224916 238.58086635 189.984375 242.328125 C178.14380424 246.33713715 166.49678575 246.28538725 155 241 C136.11648035 228.38529504 134.28166002 201.90191041 129.93261719 181.42797852 C124.8742606 154.88237616 124.8742606 154.88237616 110.5625 132.625 C104.06264368 128.50313989 98.91864618 127.5444893 91.34765625 127.48828125 C89.99745644 127.46135445 89.99745644 127.46135445 88.61997986 127.43388367 C85.76753309 127.38004755 82.91525107 127.34597112 80.0625 127.3125 C78.11911783 127.27930332 76.17575733 127.2448115 74.23242188 127.20898438 C69.48840064 127.12433659 64.744426 127.05739864 60 127 C60.06133432 138.44887938 60.13852924 149.89753312 60.23571491 161.34616756 C60.28035421 166.66281034 60.31962454 171.97937763 60.34643555 177.29614258 C60.37253273 182.43155466 60.41298052 187.56667523 60.46318626 192.7019062 C60.47981164 194.65656457 60.49135278 196.61127331 60.49761391 198.56599236 C60.50730221 201.31375226 60.53541748 204.06077362 60.56762695 206.80834961 C60.56619186 207.60820786 60.56475677 208.4080661 60.5632782 209.23216248 C60.67156335 215.8065062 61.70175294 222.36377544 66.125 227.4375 C72.52978372 230.91836072 79.84773513 231.31883192 87 232 C87 234.64 87 237.28 87 240 C58.29 240 29.58 240 0 240 C0 237.36 0 234.72 0 232 C0.92941406 231.89042969 1.85882813 231.78085938 2.81640625 231.66796875 C13.64335529 230.60699371 13.64335529 230.60699371 22.8125 225.3125 C25.8091844 219.47685142 26.29487889 213.30282552 26.26069641 206.84742737 C26.26452196 206.06698356 26.26834751 205.28653975 26.27228898 204.48244613 C26.28254023 201.88869928 26.27864195 199.29517705 26.2746582 196.70141602 C26.27900901 194.83308713 26.28419339 192.96476002 26.29014587 191.09643555 C26.30350664 186.0365288 26.30411785 180.97669688 26.30158257 175.91677594 C26.30051099 171.68718809 26.30540096 167.45761525 26.310188 163.22803062 C26.32127283 153.24763067 26.32172618 143.26726836 26.31567383 133.28686523 C26.30963259 123.00194191 26.32195124 112.71715533 26.3432439 102.43225533 C26.36087376 93.5904041 26.36685911 84.74859636 26.36360615 75.90672821 C26.36179555 70.63093751 26.36440742 65.35524441 26.37832069 60.07946968 C26.3909171 55.11767369 26.38893773 50.1560906 26.37590981 45.19429779 C26.37354853 43.37749344 26.37626258 41.56067401 26.38453293 39.74388695 C26.97792343 25.15475614 26.97792343 25.15475614 20.75 12.5625 C14.23500947 8.86080084 7.32506769 8.50335004 0 8 C0 5.36 0 2.72 0 0 Z M63.625 13.1875 C59.89564928 19.64214548 59.71222856 26.37036417 59.77294922 33.62890625 C59.77265717 34.55666367 59.77236511 35.48442108 59.77206421 36.44029236 C59.77344817 39.48112619 59.78896519 42.52170942 59.8046875 45.5625 C59.80842095 47.68098822 59.81126635 49.79947818 59.81326294 51.91796875 C59.82087323 57.47459744 59.84049928 63.0311204 59.8626709 68.58770752 C59.88318553 74.26548838 59.89227665 79.94328645 59.90234375 85.62109375 C59.9237477 96.7474421 59.95785207 107.87371224 60 119 C64.01607353 119.05034615 68.03201885 119.08615418 72.04833984 119.10986328 C74.06744873 119.12458051 76.08647052 119.15002367 78.10546875 119.17578125 C95.97506322 119.26380881 113.30508755 117.48526719 127 105 C137.98048571 92.87656411 140.52468557 75.86488959 140.1875 59.99609375 C139.17511224 43.81898093 135.02198923 28.93886321 122.9609375 17.5625 C112.11147591 8.91751068 99.02772892 7.74308192 85.6875 7.625 C84.66124512 7.61106201 83.63499023 7.59712402 82.57763672 7.58276367 C75.44132253 7.6274309 69.10327102 8.14172406 63.625 13.1875 Z " fill="#FFFFFF" transform="translate(255,7)"/>
<path d="M0 0 C6.95405345 4.43189017 6.95405345 4.43189017 15 5 C16.88695626 0.71146306 18.58192622 -3.52761347 20 -8 C22.64 -8 25.28 -8 28 -8 C28.09332609 6.69237815 27.79991532 21.37369454 27.5 36.0625 C27.45166919 38.49023132 27.40349101 40.91796568 27.35546875 43.34570312 C27.23873642 49.23050495 27.12012912 55.11526659 27 61 C24.03 61 21.06 61 18 61 C17.65388672 59.07800781 17.65388672 59.07800781 17.30078125 57.1171875 C13.62959584 37.37547409 8.38699872 17.89924146 -8.44921875 5.14453125 C-10.91000848 3.57997891 -13.36604558 2.2489643 -16 1 C-16.71027344 0.66097656 -17.42054687 0.32195313 -18.15234375 -0.02734375 C-29.20901827 -4.24403684 -44.66519607 -3.62030862 -55.5234375 0.73828125 C-59.4521534 2.73981948 -62.76938163 5.00117488 -66 8 C-66.55429688 8.51304688 -67.10859375 9.02609375 -67.6796875 9.5546875 C-75.34152131 17.52146992 -77.09362891 28.29955323 -77 39 C-76.16749949 50.90298595 -69.86553442 61.76263527 -61.08203125 69.60546875 C-59.99999459 70.47594052 -58.90968315 71.33619889 -57.8125 72.1875 C-57.20792969 72.65889404 -56.60335938 73.13028809 -55.98046875 73.6159668 C-49.16814324 78.80536607 -41.85312739 83.10638961 -34.50830078 87.48730469 C-16.30523685 98.46513067 1.9644161 109.96886409 18 124 C18.6290625 124.54527344 19.258125 125.09054688 19.90625 125.65234375 C32.34990861 137.21929004 39.28061194 152.12674006 40.22265625 168.984375 C40.72080326 186.02645138 37.50033036 201.9914296 26 215 C25.3915625 215.6909375 24.783125 216.381875 24.15625 217.09375 C13.49721542 228.45173767 -0.76809713 234.50010754 -16 237 C-16.65484375 237.11085937 -17.3096875 237.22171875 -17.984375 237.3359375 C-40.1854605 240.42405842 -60.84146424 236.13416517 -80.13989258 224.94702148 C-84.28188073 222.6125541 -87.10092765 221.48712836 -92 222 C-94.30440013 226.29456388 -95.78184562 230.31479085 -97 235 C-99.97 235 -102.94 235 -106 235 C-105.34 207.94 -104.68 180.88 -104 153 C-101.36 153 -98.72 153 -96 153 C-94.48212442 154.51787558 -94.64412353 156.05286303 -94.38671875 158.1640625 C-94.27561768 159.03135986 -94.1645166 159.89865723 -94.05004883 160.79223633 C-93.93040771 161.72704834 -93.8107666 162.66186035 -93.6875 163.625 C-90.83990832 184.24003298 -84.94562587 206.03673295 -67.92578125 219.66015625 C-55.18286465 228.5259177 -39.91814532 230.71073856 -24.734375 228.53125 C-13.51606566 226.11499876 -4.5247679 220.52616114 2 211 C8.30145628 198.82031958 10.16443834 185.65939885 6.4375 172.3125 C-0.85925135 151.26713294 -19.3244853 140.04265315 -37.30444336 128.83740234 C-95.94150441 92.2396473 -95.94150441 92.2396473 -102.8125 64.5 C-106.11198778 47.01650728 -104.72838562 28.93945675 -94.96875 13.6796875 C-84.89755521 -0.02832763 -70.75155745 -6.99807185 -54.3125 -10.25 C-34.29995422 -13.14620936 -17.25424407 -10.33645857 0 0 Z " fill="#FFFFFF" transform="translate(1643,14)"/>
<path d="M0 0 C3.89695124 2.49099236 6.61854278 3.61943611 11.25073242 2.94702148 C14.49450364 -0.76014562 15.21490036 -5.35189454 16.25073242 -10.05297852 C19.22073242 -10.05297852 22.19073242 -10.05297852 25.25073242 -10.05297852 C25.19014648 -8.75875977 25.12956055 -7.46454102 25.06713867 -6.13110352 C24.10573454 15.55175142 23.70305058 37.24883939 23.25073242 58.94702148 C20.28073242 58.94702148 17.31073242 58.94702148 14.25073242 58.94702148 C14.1037793 57.84487305 13.95682617 56.74272461 13.80541992 55.60717773 C10.85624714 35.0656871 4.78852573 16.64199532 -11.74926758 2.94702148 C-23.89270071 -4.87915478 -39.18455713 -6.17073368 -53.17895508 -3.36547852 C-55.86618263 -2.4519734 -58.25577699 -1.4046687 -60.74926758 -0.05297852 C-61.5562207 0.38272461 -62.36317383 0.81842773 -63.19458008 1.26733398 C-71.24803936 6.13130444 -76.10983114 12.79042807 -79.05395508 21.69702148 C-81.56234163 33.42161483 -80.68899031 46.15839925 -74.17114258 56.43530273 C-72.46512969 58.7215137 -70.66687005 60.83642691 -68.74926758 62.94702148 C-68.01643555 63.81713867 -68.01643555 63.81713867 -67.26879883 64.70483398 C-57.85206543 75.11407655 -43.58144743 81.94159647 -31.80615234 89.27050781 C28.28031084 126.74607001 28.28031084 126.74607001 35.33276367 155.02514648 C38.96076614 172.09830536 36.98192064 191.33367893 27.98901367 206.39624023 C17.53428878 221.737668 1.87941896 230.79108082 -16.20825195 234.35302734 C-40.56557033 238.67473825 -63.38492548 235.13495158 -84.70214844 222.48754883 C-88.56432662 220.26775691 -91.30643434 219.55540396 -95.74926758 219.94702148 C-97.76982601 224.33953981 -99.15821992 228.10043071 -99.74926758 232.94702148 C-102.71926758 232.94702148 -105.68926758 232.94702148 -108.74926758 232.94702148 C-108.25426758 192.35702148 -108.25426758 192.35702148 -107.74926758 150.94702148 C-104.77926758 150.94702148 -101.80926758 150.94702148 -98.74926758 150.94702148 C-98.65427979 151.62055664 -98.55929199 152.2940918 -98.46142578 152.98803711 C-95.17049575 175.90931594 -91.44442278 201.07764384 -72.48754883 216.82592773 C-59.87793686 225.60644287 -45.94289626 228.44503762 -30.74926758 226.94702148 C-19.90905243 224.85734145 -10.30138605 220.66142297 -3.37426758 211.88452148 C4.69446778 199.73241804 6.28689408 185.63385814 3.59057617 171.48217773 C-3.78574322 146.67092161 -29.58288242 133.39703838 -50.14257812 120.88134766 C-59.30383944 115.28164481 -68.20063717 109.44709002 -76.74926758 102.94702148 C-77.3504541 102.49020996 -77.95164062 102.03339844 -78.57104492 101.56274414 C-93.64250667 89.92392848 -104.8599225 74.78161786 -107.37426758 55.57202148 C-107.51548044 54.03175526 -107.64035792 52.48990832 -107.74926758 50.94702148 C-107.8034082 50.2109668 -107.85754883 49.47491211 -107.91333008 48.71655273 C-108.4877323 33.12936511 -103.95655843 18.11366149 -93.99926758 6.00952148 C-69.51376457 -19.37064413 -27.67415393 -18.31605785 0 0 Z " fill="#FFFFFF" transform="translate(774.749267578125,16.052978515625)"/>
<path d="M0 0 C28.71 0 57.42 0 87 0 C87 2.64 87 5.28 87 8 C85.92621094 8.09796875 84.85242188 8.1959375 83.74609375 8.296875 C82.30980755 8.44707486 80.87361417 8.59816414 79.4375 8.75 C78.38079102 8.8428125 78.38079102 8.8428125 77.30273438 8.9375 C71.9575536 9.52867207 68.30864991 10.69794444 64 14 C60.26647464 21.24751571 60.57417873 28.45464066 60.61181641 36.45214844 C60.60774532 37.90854789 60.60240044 39.36494426 60.59588623 40.82133484 C60.58225598 44.76223854 60.58749732 48.7029055 60.59702349 52.64381313 C60.60465976 56.79178405 60.59756192 60.93973573 60.59286499 65.08770752 C60.58741163 72.06485594 60.59458037 79.04190904 60.60888672 86.01904297 C60.6251356 94.03503192 60.61997989 102.05079097 60.6034075 110.06677413 C60.58968822 116.98440796 60.58792569 123.90197347 60.59572351 130.81961656 C60.60035315 134.93489468 60.60115882 139.05006577 60.59111404 143.16533661 C59.56193327 183.87767271 59.56193327 183.87767271 77.03125 219.1796875 C82.16262607 224.11231309 87.19560038 226.98309528 94 229 C94.73347656 229.22429687 95.46695313 229.44859375 96.22265625 229.6796875 C112.27015167 233.69844278 131.78314142 231.68205503 146.21875 223.78515625 C161.86231182 213.74427458 168.55904744 198.93544677 172.6875 181.3125 C176.13426966 163.21671227 176.29851695 145.21100389 176.265625 126.84375 C176.26697556 124.16198503 176.26891718 121.48022551 176.27142334 118.79846191 C176.27503155 113.21457908 176.27034337 107.63074967 176.26074219 102.046875 C176.2498208 95.62158509 176.25342252 89.1964218 176.264395 82.77113485 C176.2735073 77.20883152 176.27473524 71.64656599 176.26951766 66.0842576 C176.266425 62.78154503 176.26671823 59.47890402 176.27259064 56.17619324 C176.27769884 52.49953757 176.26988729 48.82312224 176.25878906 45.14648438 C176.26486176 43.53939606 176.26486176 43.53939606 176.27105713 41.89984131 C176.30338339 27.46418099 176.30338339 27.46418099 170 15 C162.83189672 9.72933582 154.6475211 8.83484714 146 8 C146 5.36 146 2.72 146 0 C168.11 0 190.22 0 213 0 C213 2.64 213 5.28 213 8 C212.0821875 8.08636719 211.164375 8.17273437 210.21875 8.26171875 C199.70332925 9.42996147 199.70332925 9.42996147 191 15 C187.75249153 20.02840021 186.88526429 24.98118301 186.84851074 30.88827515 C186.84016708 31.84636581 186.83182343 32.80445648 186.82322693 33.7915802 C186.8169503 35.35146919 186.8169503 35.35146919 186.81054688 36.94287109 C186.80225357 38.04782425 186.79396027 39.1527774 186.78541565 40.29121399 C186.7680235 42.69198556 186.75285441 45.09277403 186.73963928 47.49357224 C186.7185231 51.31449396 186.69149664 55.13533419 186.66296387 58.95620728 C186.60833664 66.40729863 186.55995431 73.85841942 186.51302338 81.30956268 C186.44955385 91.37548769 186.38263183 101.44137107 186.30812073 111.50722122 C186.28197399 115.23277802 186.26088925 118.95833943 186.2401123 122.68392944 C186.16830852 133.63437653 186.01542683 144.57218452 185.56054688 155.51416016 C185.50644024 156.85650758 185.50644024 156.85650758 185.45124054 158.22597313 C184.25322633 184.10056163 179.70337635 209.51324779 160 228 C142.02276864 243.14640109 119.72300769 246.29251532 97.0390625 244.7265625 C75.87992943 242.52335218 58.3151562 235.17486194 44.16796875 218.82421875 C28.10282746 197.89611577 26.86431548 172.56734571 26.84228516 147.08496094 C26.83448662 145.07041799 26.826684 143.05587505 26.81872725 141.04133272 C26.81108807 138.9071519 26.80566404 136.77297509 26.80076981 134.63878632 C26.78995429 130.16542292 26.76968069 125.69213151 26.74765015 121.21881104 C26.68615953 108.50951406 26.63167474 95.80022577 26.59863281 83.09082031 C26.58024224 76.04713503 26.55126639 69.00357515 26.5106281 61.95998216 C26.48966289 58.24530064 26.47411551 54.53077619 26.47182083 50.81603241 C26.46925947 46.67633304 26.4437281 42.53707166 26.41650391 38.39746094 C26.41951004 37.18370789 26.42251617 35.96995483 26.4256134 34.71942139 C26.34972181 26.93500388 26.19164711 18.54627457 20.75 12.5 C14.17911142 8.91587896 7.32974648 8.50367155 0 8 C0 5.36 0 2.72 0 0 Z " fill="#FFFFFF" transform="translate(445,7)"/>
<path d="M0 0 C28.71 0 57.42 0 87 0 C87 2.64 87 5.28 87 8 C85.91460938 8.10957031 84.82921875 8.21914062 83.7109375 8.33203125 C82.26555848 8.49158608 80.82024949 8.65177611 79.375 8.8125 C78.66214844 8.88275391 77.94929688 8.95300781 77.21484375 9.02539062 C72.03002699 9.6199797 67.07613265 10.48588868 63.57421875 14.7265625 C63.28160156 15.35304688 62.98898437 15.97953125 62.6875 16.625 C62.38199219 17.23601563 62.07648438 17.84703125 61.76171875 18.4765625 C58.99054615 27.65695993 59.85149521 37.854596 59.85473633 47.35473633 C59.85174052 49.10997081 59.84833702 50.86520465 59.84455872 52.62043762 C59.83575788 57.3684964 59.83338227 62.11653713 59.83274293 66.86460328 C59.83203025 69.83620212 59.82989182 72.80779644 59.82724571 75.77939415 C59.81800554 86.16095646 59.8139092 96.54250597 59.81469727 106.92407227 C59.81529783 116.5778374 59.80474672 126.23154661 59.7889536 135.8852976 C59.77584891 144.19388077 59.77051459 152.50244573 59.77115268 160.81103915 C59.77140678 165.76439966 59.76860386 170.71771042 59.75797462 175.67106056 C59.74824412 180.33243427 59.7482482 184.99371117 59.75549126 189.65508842 C59.75653093 191.3577552 59.75421121 193.06042817 59.7481308 194.76308441 C59.14455556 211.67067744 59.14455556 211.67067744 65 227 C71.54128908 231.01397285 79.51441817 231.18111396 87 232 C87 234.64 87 237.28 87 240 C58.29 240 29.58 240 0 240 C0 237.36 0 234.72 0 232 C1.15757813 231.82984375 2.31515625 231.6596875 3.5078125 231.484375 C5.04699798 231.24035779 6.58605394 230.99552264 8.125 230.75 C8.88554688 230.64042969 9.64609375 230.53085938 10.4296875 230.41796875 C15.44631122 229.59628038 19.30365528 228.7073131 23 225 C26.88980029 215.32036988 26.42056004 204.94946334 26.37231445 194.72216797 C26.37474691 192.904132 26.37847061 191.08609738 26.38337708 189.26806641 C26.39272624 184.36323085 26.38341189 179.45859693 26.37004495 174.55377722 C26.35866842 169.40418845 26.36284264 164.25460872 26.36479187 159.10501099 C26.36567273 150.46206395 26.35463667 141.81919566 26.33618164 133.17626953 C26.31500385 123.20145191 26.31150827 113.22674946 26.3177436 103.25191391 C26.32344878 93.63038171 26.31777885 84.00888982 26.30657005 74.38736343 C26.30194072 70.30388769 26.30104296 66.22043673 26.3031559 62.13695908 C26.30504705 57.32533335 26.2968716 52.51382394 26.2810955 47.70222473 C26.27687317 45.94228217 26.2759882 44.18232776 26.27878571 42.42238235 C26.62262809 27.82773222 26.62262809 27.82773222 22.5 14.0625 C16.30250545 8.94956699 7.75631179 8.47858094 0 8 C0 5.36 0 2.72 0 0 Z " fill="#FFFFFF" transform="translate(1054,7)"/>
<path d="M0 0 C5.97380496 3.5273896 10.2750338 8.47518967 12.48828125 15.0859375 C13.41373111 22.06090699 13.00709224 28.10102023 9.18359375 34.109375 C5.3535357 38.57483439 0.32311199 42.01447158 -5.51171875 43.0859375 C-12.33948586 43.54112197 -17.9249258 42.86211525 -23.46484375 38.57421875 C-28.8394028 33.54968351 -31.60481427 28.53949184 -31.88671875 21.0859375 C-31.626576 13.92117255 -28.79288757 9.04487379 -24.3046875 3.6640625 C-17.73499834 -2.11840901 -8.10957034 -2.95122777 0 0 Z " fill="#FFFFFF" transform="translate(1963.51171875,208.9140625)"/>
</svg>
